<?xml version="1.0" standalone="no"?>
<!DOCTYPE svg PUBLIC "-//W3C//DTD SVG 20010904//EN"
 "http://www.w3.org/TR/2001/REC-SVG-20010904/DTD/svg10.dtd">
<svg version="1.0" xmlns="http://www.w3.org/2000/svg"
 width="476.000000pt" height="476.000000pt" viewBox="0 0 476.000000 476.000000"
 preserveAspectRatio="xMidYMid meet">
<metadata>
Created by potrace 1.14, written by Peter Selinger 2001-2017
</metadata>
<g transform="translate(0.000000,476.000000) scale(0.100000,-0.100000)"
fill="#000000" stroke="none">
<path d="M3289 4519 c-28 -9 -62 -27 -77 -40 -28 -25 -72 -65 -133 -121 -20
-18 -73 -67 -119 -108 -123 -110 -140 -128 -134 -145 7 -18 -5 -17 179 -21
521 -11 530 -10 620 72 116 106 355 349 355 361 0 22 -36 24 -343 21 -242 -2
-307 -6 -348 -19z"/>
<path d="M2307 4524 c-1 -2 -104 -4 -227 -5 -155 -2 -237 -7 -265 -16 -37 -12
-106 -62 -225 -163 -25 -21 -76 -63 -115 -94 -121 -97 -139 -116 -126 -129 8
-8 92 -12 271 -15 281 -4 329 2 382 51 13 12 55 48 94 79 38 31 81 67 95 80
14 13 55 48 90 78 91 78 122 110 116 117 -7 6 -85 22 -90 17z"/>
<path d="M2513 4503 c-31 -13 -63 -31 -72 -40 -9 -10 -36 -34 -61 -55 -25 -20
-61 -50 -80 -68 -19 -17 -55 -48 -79 -68 -24 -21 -49 -42 -55 -47 -6 -6 -33
-28 -59 -49 -28 -23 -47 -46 -45 -55 4 -21 76 -26 373 -26 261 0 274 3 365 86
25 23 85 78 134 123 196 177 217 199 206 210 -7 7 -103 11 -292 11 -267 0
-283 -1 -335 -22z"/>
<path d="M3834 4283 c-102 -104 -190 -198 -195 -211 -10 -25 -13 -96 -6 -127
3 -11 19 -72 37 -135 17 -63 36 -131 40 -150 5 -19 20 -78 35 -130 14 -52 28
-105 31 -118 24 -114 64 -162 102 -124 28 29 112 123 182 202 36 41 84 95 106
120 53 58 74 100 74 147 0 44 -142 631 -165 681 -9 20 -22 32 -35 32 -12 0
-88 -69 -206 -187z"/>
<path d="M1293 4055 c-63 -14 -71 -20 -219 -142 -66 -54 -126 -103 -134 -110
-158 -126 -181 -146 -178 -161 2 -10 14 -18 28 -19 140 -9 336 -17 425 -18 90
0 116 4 145 19 28 15 233 180 286 231 6 5 37 33 70 60 119 101 130 113 117
126 -8 8 -77 13 -215 15 -111 3 -219 6 -238 8 -19 1 -58 -3 -87 -9z"/>
<path d="M2069 4056 c-2 -2 -22 -5 -44 -7 -67 -5 -134 -47 -260 -162 -11 -11
-72 -62 -135 -115 -205 -171 -209 -180 -87 -187 462 -26 530 -26 587 3 25 12
68 43 96 70 28 26 71 64 95 85 58 51 203 183 251 228 21 20 38 41 38 46 0 23
-59 30 -285 32 -131 1 -242 4 -246 6 -3 3 -8 3 -10 1z"/>
<path d="M2725 4016 c-27 -13 -68 -41 -90 -62 -68 -63 -227 -208 -290 -264
-71 -63 -105 -98 -105 -108 1 -26 23 -33 116 -37 98 -4 245 -11 438 -21 124
-7 186 11 250 70 164 152 406 391 406 401 0 33 -28 36 -352 41 l-323 4 -50
-24z"/>
<path d="M3296 3736 c-218 -218 -223 -225 -231 -307 -2 -18 18 -97 65 -249 17
-58 33 -112 35 -120 2 -8 26 -89 54 -180 65 -214 85 -233 156 -148 15 18 53
60 84 93 31 34 82 90 113 125 31 36 75 85 98 110 50 54 79 113 80 160 0 19 -9
67 -20 105 -11 39 -22 79 -25 90 -6 29 -51 197 -76 285 -12 41 -30 107 -41
145 -20 72 -41 105 -64 105 -8 0 -110 -96 -228 -214z"/>
<path d="M4174 3523 c-38 -43 -73 -83 -79 -89 -5 -6 -36 -40 -67 -75 -31 -35
-71 -80 -89 -99 -78 -87 -86 -134 -43 -290 14 -52 27 -102 29 -111 2 -9 12
-47 23 -85 26 -93 66 -238 67 -244 10 -63 40 -105 68 -95 8 4 48 48 88 98 41
51 79 99 86 107 194 239 187 227 186 310 -1 53 -143 612 -161 633 -8 9 -21 17
-27 17 -7 0 -43 -35 -81 -77z"/>
<path d="M653 3553 c-21 -7 -39 -13 -40 -13 -1 0 -34 -26 -365 -293 -80 -64
-148 -124 -152 -132 -10 -28 11 -33 234 -51 36 -3 85 -7 110 -10 25 -2 83 -6
130 -9 109 -5 141 8 268 117 53 46 106 90 117 99 101 83 261 223 271 237 21
30 2 43 -72 47 -407 23 -458 24 -501 8z"/>
<path d="M1366 3515 c-45 -17 -86 -47 -232 -174 -60 -51 -136 -117 -169 -145
-33 -28 -82 -72 -110 -98 -67 -63 -57 -74 85 -83 58 -4 112 -9 122 -10 9 -2
51 -6 95 -10 43 -3 96 -8 118 -10 88 -10 145 -6 190 14 56 25 68 34 192 149
54 50 110 100 123 112 38 32 160 142 192 172 29 28 36 52 18 63 -6 4 -47 8
-93 10 -45 3 -129 7 -187 10 -270 14 -305 14 -344 0z"/>
<path d="M2145 3478 c-34 -12 -80 -43 -111 -73 -21 -21 -133 -121 -171 -153
-12 -10 -70 -63 -129 -118 -59 -54 -110 -101 -114 -104 -4 -3 -12 -15 -18 -27
-15 -27 7 -53 46 -54 15 0 38 -2 52 -4 14 -1 68 -6 120 -10 52 -4 109 -8 125
-11 70 -8 225 -19 285 -19 47 0 77 6 110 23 45 22 520 477 520 497 -1 27 -21
35 -100 40 -334 21 -579 27 -615 13z"/>
<path d="M2693 3137 c-142 -144 -239 -249 -248 -271 -28 -67 -20 -107 101
-466 124 -370 140 -403 187 -378 25 13 19 7 117 118 41 47 77 87 80 90 3 3 43
47 90 99 47 52 100 111 118 130 45 49 62 83 69 140 5 47 3 58 -52 231 -8 25
-44 144 -80 265 -36 121 -74 231 -84 245 -39 54 -47 49 -298 -203z"/>
<path d="M3735 3028 c-42 -51 -142 -164 -175 -199 -19 -20 -62 -68 -95 -105
-154 -174 -152 -161 -57 -479 17 -55 49 -163 72 -240 23 -77 48 -150 56 -162
26 -41 56 -28 114 48 14 18 30 37 35 43 6 6 35 43 65 81 30 39 57 72 60 75 3
3 37 43 74 90 82 101 104 147 100 201 -5 63 -164 632 -181 651 -22 24 -45 23
-68 -4z"/>
<path d="M99 2993 c-18 -22 -17 -51 3 -95 29 -62 47 -103 73 -168 15 -36 33
-78 40 -95 8 -16 37 -86 65 -155 53 -128 84 -179 124 -205 12 -8 112 -28 222
-45 109 -16 222 -33 249 -38 120 -19 120 -11 -15 330 -127 323 -136 343 -163
380 -35 48 -75 61 -227 73 -85 7 -154 13 -220 21 -128 15 -136 15 -151 -3z"/>
<path d="M806 2918 c-9 -12 -16 -28 -16 -35 0 -10 58 -159 231 -598 23 -58 68
-111 105 -125 14 -6 101 -21 192 -35 92 -14 179 -27 194 -30 16 -3 40 -7 55
-9 16 -2 53 -7 84 -11 61 -8 78 2 80 46 2 21 -49 173 -96 289 -8 19 -43 114
-79 211 -68 188 -92 227 -155 252 -20 8 -76 18 -126 22 -49 3 -103 8 -119 10
-36 4 -145 15 -206 20 -25 3 -64 7 -87 10 -35 5 -44 2 -57 -17z"/>
<path d="M1589 2844 c-7 -8 -12 -27 -12 -42 0 -15 42 -142 93 -282 51 -140
103 -284 116 -319 50 -138 85 -163 264 -187 14 -2 125 -19 247 -38 122 -19
230 -33 240 -31 10 2 21 4 26 4 4 1 13 12 19 26 10 21 -4 71 -102 367 -63 189
-124 359 -136 379 -32 51 -81 78 -150 84 -33 3 -81 7 -109 10 -27 2 -77 7
-110 10 -33 3 -76 8 -95 10 -38 5 -122 13 -217 20 -47 3 -64 1 -74 -11z"/>
<path d="M4437 2757 c-12 -12 -63 -73 -112 -136 -50 -62 -110 -139 -135 -170
-84 -103 -91 -117 -93 -174 -1 -56 4 -82 26 -155 8 -26 22 -74 31 -107 9 -33
24 -87 33 -120 9 -33 17 -62 18 -65 0 -3 9 -38 19 -78 20 -79 44 -119 68 -110
14 6 255 324 312 414 44 67 40 115 -33 409 -34 138 -66 262 -72 277 -15 36
-34 41 -62 15z"/>
<path d="M3143 2363 c-186 -206 -362 -411 -378 -442 -32 -63 -23 -107 88 -436
57 -171 109 -320 116 -333 12 -22 45 -29 67 -14 8 6 102 118 167 202 7 8 46
56 87 105 95 115 141 173 162 207 26 39 29 111 8 182 -37 127 -131 434 -151
496 -45 138 -66 142 -166 33z"/>
<path d="M3994 2192 c-6 -4 -93 -108 -191 -230 -173 -214 -203 -262 -203 -321
0 -12 13 -65 29 -119 16 -53 46 -153 66 -222 21 -69 49 -161 64 -205 41 -125
42 -124 238 140 90 121 172 238 183 260 31 62 28 85 -44 345 -8 30 -32 120
-54 199 -41 149 -56 175 -88 153z"/>
<path d="M442 2178 c-7 -7 -12 -20 -12 -31 0 -17 43 -128 94 -242 13 -27 47
-108 76 -180 61 -147 89 -198 124 -220 20 -13 167 -49 281 -69 17 -3 80 -15
142 -27 121 -24 147 -20 139 25 -9 50 -231 594 -254 621 -37 46 -63 57 -157
70 -22 3 -65 10 -95 15 -30 5 -71 11 -90 14 -19 3 -78 12 -130 21 -114 18
-103 18 -118 3z"/>
<path d="M1142 2068 c-6 -6 -12 -23 -12 -37 0 -14 45 -140 101 -281 55 -140
105 -268 112 -285 17 -44 73 -102 110 -114 51 -17 517 -111 549 -111 21 0 31
6 37 22 10 27 7 37 -52 193 -25 66 -73 197 -108 290 -77 208 -98 235 -205 255
-37 7 -74 14 -83 15 -15 1 -82 11 -141 21 -284 46 -293 47 -308 32z"/>
<path d="M1919 1939 c-10 -10 -19 -25 -19 -32 0 -17 183 -527 201 -559 5 -10
9 -24 9 -31 0 -24 58 -96 92 -113 25 -13 203 -53 398 -90 14 -3 67 -14 118
-25 111 -24 142 -22 158 9 10 21 -2 66 -91 330 -108 325 -124 366 -159 395
-43 37 -74 46 -231 67 -74 10 -183 27 -225 34 -14 3 -61 10 -105 16 -44 6 -90
13 -103 15 -14 2 -31 -4 -43 -16z"/>
<path d="M3485 1562 c-36 -26 -404 -489 -423 -532 -29 -66 -20 -112 83 -416
54 -159 102 -295 107 -302 6 -6 21 -12 34 -12 22 0 61 48 316 395 16 22 47 64
68 93 66 89 67 131 10 317 -23 77 -45 152 -47 168 -3 15 -9 30 -14 33 -5 3 -9
12 -9 21 0 22 -61 215 -73 231 -10 13 -36 16 -52 4z"/>
<path d="M756 1392 c-4 -11 -1 -33 5 -48 7 -16 17 -42 24 -59 7 -16 41 -97 75
-180 73 -175 123 -284 142 -306 29 -35 73 -50 311 -110 256 -64 277 -65 277
-21 0 29 -220 568 -241 591 -25 27 -61 51 -85 56 -222 48 -419 88 -455 92 -41
5 -48 3 -53 -15z"/>
<path d="M1469 1263 c-9 -2 -19 -14 -21 -26 -5 -25 201 -554 233 -599 35 -48
69 -59 443 -148 190 -46 212 -46 210 1 -1 21 -109 324 -181 509 -47 121 -79
147 -218 175 -44 9 -156 32 -250 52 -202 42 -196 41 -216 36z"/>
<path d="M2220 1085 c-10 -13 -8 -30 15 -98 15 -45 33 -95 40 -112 7 -16 41
-109 75 -205 63 -175 90 -226 136 -256 30 -20 600 -166 633 -162 51 6 49 20
-58 341 -128 383 -117 370 -326 412 -71 15 -137 28 -145 30 -110 24 -320 65
-336 65 -12 0 -27 -7 -34 -15z"/>
</g>
</svg>
