<?xml version="1.0" standalone="no"?>
<!DOCTYPE svg PUBLIC "-//W3C//DTD SVG 20010904//EN"
 "http://www.w3.org/TR/2001/REC-SVG-20010904/DTD/svg10.dtd">
<svg version="1.0" xmlns="http://www.w3.org/2000/svg"
 width="166.000000pt" height="166.000000pt" viewBox="0 0 166.000000 166.000000"
 preserveAspectRatio="xMidYMid meet">
<metadata>
Created by potrace 1.14, written by Peter Selinger 2001-2017
</metadata>
<g transform="translate(0.000000,166.000000) scale(0.100000,-0.100000)"
fill="#000000" stroke="none">
<path d="M1494 1185 c0 -24 3 -25 58 -25 l58 0 0 -85 c0 -82 1 -85 23 -81 21
3 22 8 25 109 l3 107 -84 0 c-82 0 -83 0 -83 -25z"/>
<path d="M9 978 c-4 -11 -3 -248 1 -249 20 -4 173 -3 180 1 5 3 7 14 5 25 -2
11 -4 24 -4 28 -1 5 -21 7 -46 6 -24 -2 -48 0 -52 4 -4 4 -7 47 -7 95 l-1 87
-38 3 c-20 2 -37 2 -38 0z"/>
<path d="M285 855 c0 -76 4 -125 10 -126 6 -1 58 -2 118 -3 l107 -1 0 28 c0
30 1 30 -87 29 -44 -1 -63 3 -67 13 -8 21 9 27 75 27 58 0 59 1 59 29 l0 29
-69 0 c-60 0 -69 2 -67 18 2 14 16 18 77 22 71 5 74 6 74 30 l0 25 -115 3
-115 3 0 -126z"/>
<path d="M614 943 c31 -86 78 -199 87 -208 6 -5 23 -10 39 -11 28 0 32 4 59
75 16 42 39 100 50 129 l21 53 -42 -3 -41 -3 -25 -75 c-22 -65 -26 -72 -33
-50 -4 14 -16 48 -26 75 -18 48 -20 50 -61 53 l-42 3 14 -38z"/>
<path d="M954 855 c0 -69 2 -125 5 -126 18 -3 208 -5 217 -1 18 5 14 52 -5 53
-9 0 -43 1 -76 2 -48 2 -60 5 -63 20 -4 18 2 19 91 19 46 -1 47 0 47 29 l0 29
-69 0 c-64 0 -70 2 -68 20 1 18 8 20 74 20 l73 0 0 30 0 30 -113 0 -113 0 0
-125z"/>
<path d="M1290 852 l0 -127 88 1 c48 1 90 2 95 3 4 0 7 15 7 31 0 30 -1 30
-55 30 l-55 0 0 95 0 95 -40 0 -40 0 0 -128z"/>
<path d="M398 533 c-6 -32 4 -73 18 -73 8 0 14 7 14 15 0 8 9 15 19 15 11 0
23 5 26 10 4 6 -5 10 -19 10 -14 0 -26 5 -26 10 0 6 11 10 25 10 14 0 25 5 25
10 0 6 -18 10 -39 10 -30 0 -40 -4 -43 -17z"/>
<path d="M508 543 c-2 -5 -4 -24 -3 -43 0 -23 5 -36 16 -38 12 -2 15 5 13 35
-3 52 -3 53 -13 53 -6 0 -11 -3 -13 -7z"/>
<path d="M568 532 c16 -13 23 -26 20 -42 -2 -17 2 -26 14 -28 13 -2 16 4 16
28 -1 19 6 36 18 45 17 13 14 14 -36 14 -55 1 -55 1 -32 -17z"/>
<path d="M668 533 c-6 -32 4 -73 18 -73 8 0 11 6 8 15 -4 8 -2 15 4 15 5 0 15
-7 22 -15 24 -29 40 -18 40 30 0 33 -4 45 -15 45 -9 0 -15 -9 -15 -22 l0 -21
-23 21 c-28 27 -34 27 -39 5z"/>
<path d="M790 505 c0 -45 0 -45 35 -45 19 0 38 0 42 -1 4 0 9 4 11 10 2 6 -10
11 -30 11 -23 0 -29 3 -19 9 8 5 20 7 28 4 7 -3 13 1 13 10 0 11 -7 14 -25 11
-14 -2 -25 0 -25 6 0 5 14 10 30 10 17 0 30 5 30 10 0 6 -20 10 -45 10 l-45 0
0 -45z"/>
<path d="M911 537 c-9 -12 -8 -18 4 -31 9 -9 20 -14 25 -11 5 3 12 0 16 -6 5
-8 1 -10 -13 -7 -12 3 -27 2 -34 -3 -19 -12 30 -29 56 -19 33 12 30 39 -7 55
l-33 15 33 -4 c22 -3 32 -1 29 7 -5 18 -62 20 -76 4z"/>
<path d="M1027 544 c-17 -17 -5 -42 26 -52 l32 -12 -40 5 -40 4 22 -19 c24
-19 55 -17 72 4 12 15 3 28 -29 44 l-25 12 28 -3 c17 -3 26 0 24 7 -4 13 -59
21 -70 10z"/>
</g>
</svg>
