<?xml version="1.0" encoding="utf-8"?><svg viewBox="0 0 78 78" xmlns="http://www.w3.org/2000/svg" xmlns:xlink="http://www.w3.org/1999/xlink"><style>:root>svg{display:none}:root>svg:target{display:block}</style><svg viewBox="0 0 15 15" id="arrow" xmlns="http://www.w3.org/2000/svg"><path d="M8.085 11.667l6.675-6.675a.815.815 0 00.24-.58.815.815 0 00-.24-.58l-.491-.492a.822.822 0 00-1.16 0L7.502 8.945 1.892 3.333a.815.815 0 00-.58-.24.816.816 0 00-.581.24l-.491.492a.815.815 0 00-.24.58c0 .22.085.426.24.58l6.68 6.682c.156.155.363.24.583.24.22 0 .427-.085.582-.24z"/></svg><svg viewBox="0 0 46 42" id="like" xmlns="http://www.w3.org/2000/svg"><path d="M33.781.695c-2.496 0-4.784.791-6.802 2.351-1.933 1.496-3.221 3.4-3.979 4.786-.758-1.385-2.046-3.29-3.98-4.786-2.017-1.56-4.305-2.35-6.801-2.35C5.253.695 0 6.392 0 13.947c0 8.163 6.553 13.748 16.475 22.203a571.533 571.533 0 015.579 4.798 1.435 1.435 0 001.892 0c1.985-1.735 3.895-3.363 5.58-4.8C39.447 27.697 46 22.112 46 13.95 46 6.392 40.747.694 33.781.694z"/></svg><svg fill="none" viewBox="0 0 78 78" id="logo" xmlns="http://www.w3.org/2000/svg"><path d="M63.056 28.881l-8.844.014-26.41 24.897H10.034V36.46l24.2-22.61-16.242.05L0 30.663V64.15h34.028L63.042 36.57l.014-7.688z" fill="#fff"/><path d="M43.972 13.849L14.96 41.432l-.014 7.686 8.843-.013L50.2 24.208h17.766V41.54l-24.2 22.611 16.242-.05L78 47.338v-33.49H43.972z" fill="#fff"/></svg></svg>