<?xml version="1.0" encoding="utf-8"?><svg viewBox="0 0 16 16" xmlns="http://www.w3.org/2000/svg" xmlns:xlink="http://www.w3.org/1999/xlink"><style>:root>svg{display:none}:root>svg:target{display:block}</style><svg viewBox="0 0 11 11" id="arrow" xmlns="http://www.w3.org/2000/svg"><path fill-rule="evenodd" clip-rule="evenodd" d="M5.458 8.337L1 3.88l1.35-1.545 3.153 3.152 3.152-3.152 1.415 1.46-4.458 4.458-.035-.035-.12.12z"/></svg><svg viewBox="0 0 13 14" id="exit" xmlns="http://www.w3.org/2000/svg"><path d="M3.023 7.646a.083.083 0 01.055-.146H9.85v.006V6.5H3.078a.083.083 0 01-.054-.146L6 3.8 5.4 3 1.109 6.698A.398.398 0 00.979 7c0 .12.047.23.13.302L5.399 11l.6-.8-2.976-2.554z"/><path d="M13 .6H6.6v4.888h4.186v2.944H6.6V13.4l6.4-.08V.6z"/></svg><svg viewBox="0 0 16 16" id="history" xmlns="http://www.w3.org/2000/svg"><path fill-rule="evenodd" clip-rule="evenodd" d="M8.969 12.274c2.192 0 3.968-1.914 3.968-4.274 0-2.36-1.776-4.274-3.968-4.274S5 5.699 5 7.671h1.221C6.235 7.781 5 9.315 5 9.315c.305 1.644 2.092 2.959 3.969 2.959zm-.67-3.997V4.822h1.068v2.901l1.427 1.224-.665.9-1.83-1.57z"/><path d="M9.011 2C5.71 2 3.022 4.692 3.022 8H2l1.733 2.173L5.467 8H4.17a4.85 4.85 0 014.84-4.85 4.85 4.85 0 010 9.7 4.802 4.802 0 01-3.441-1.44l-.817.81A5.942 5.942 0 009.011 14C12.313 14 15 11.308 15 8s-2.687-6-5.989-6z"/></svg><svg viewBox="0 0 15 14" id="message" xmlns="http://www.w3.org/2000/svg"><g clip-path="url(#da)"><path d="M7.416 6.667l6.667-3.396v-1.79H.75v1.813l6.666 3.373z"/><path d="M7.533 7.804a.258.258 0 01-.116.03.271.271 0 01-.116-.029L.75 4.466v7.386h13.333V4.444l-6.55 3.36z"/></g><defs><clipPath id="da"><path transform="translate(.75)" d="M0 0h13.333v13.333H0z"/></clipPath></defs></svg><svg viewBox="0 0 13 14" id="profile" xmlns="http://www.w3.org/2000/svg"><path d="M6.875 7.018c-3.228 0-5.855 3.002-5.855 6.69 0 .161.114.292.255.292h11.2c.14 0 .254-.13.254-.291 0-3.69-2.626-6.691-5.854-6.691zm0-.618c1.546 0 2.8-1.433 2.8-3.2 0-1.767-1.254-3.2-2.8-3.2-1.547 0-2.8 1.433-2.8 3.2 0 1.767 1.253 3.2 2.8 3.2z"/></svg><svg viewBox="0 0 13 13" id="user" xmlns="http://www.w3.org/2000/svg"><path fill-rule="evenodd" clip-rule="evenodd" d="M9.306 7.258c2.46 1.194 3.004 2.642 2.823 4.957-.037.362-.326.652-.688.652H1.092c-.362 0-.651-.29-.687-.652C.224 9.9.767 8.452 3.227 7.258c.217-.145.47-.109.688.036a4.368 4.368 0 004.704 0c.217-.145.47-.18.687-.036zM6.267.6a3.058 3.058 0 013.04 3.04 3.058 3.058 0 01-3.04 3.04 3.058 3.058 0 01-3.04-3.04A3.058 3.058 0 016.267.6z"/></svg></svg>