<?xml version="1.0" encoding="utf-8"?><svg viewBox="0 0 800 800" xmlns="http://www.w3.org/2000/svg" xmlns:xlink="http://www.w3.org/1999/xlink"><style>:root>svg{display:none}:root>svg:target{display:block}</style><svg viewBox="0 0 25 25" id="arrow" xmlns="http://www.w3.org/2000/svg"><path fill-rule="evenodd" clip-rule="evenodd" d="M1.563 12.5a.781.781 0 0 1 .78-.781H20.77l-4.917-4.916a.783.783 0 0 1 1.106-1.106l6.25 6.25a.781.781 0 0 1 0 1.106l-6.25 6.25a.78.78 0 0 1-1.275-.254.783.783 0 0 1 .17-.852l4.916-4.916H2.344a.781.781 0 0 1-.781-.781Z"/></svg><svg viewBox="-5 0 20 20" id="fb" xmlns="http://www.w3.org/2000/svg"><path d="M6.821 20v-9h2.733L10 7H6.821V5.052C6.821 4.022 6.848 3 8.287 3h1.458V.14c0-.043-1.253-.14-2.52-.14C4.58 0 2.924 1.657 2.924 4.7V7H0v4h2.923v9h3.898Z" fill-rule="evenodd"/></svg><svg viewBox="0 0 24 24" id="inst" xmlns="http://www.w3.org/2000/svg"><path fill-rule="evenodd" clip-rule="evenodd" d="M12 18a6 6 0 1 0 0-12 6 6 0 0 0 0 12Zm0-2a4 4 0 1 0 0-8 4 4 0 0 0 0 8Z"/><path d="M18 5a1 1 0 1 0 0 2 1 1 0 0 0 0-2Z"/><path fill-rule="evenodd" clip-rule="evenodd" d="M1.654 4.276C1 5.56 1 7.24 1 10.6v2.8c0 3.36 0 5.04.654 6.324a6 6 0 0 0 2.622 2.622C5.56 23 7.24 23 10.6 23h2.8c3.36 0 5.04 0 6.324-.654a6 6 0 0 0 2.622-2.622C23 18.44 23 16.76 23 13.4v-2.8c0-3.36 0-5.04-.654-6.324a6 6 0 0 0-2.622-2.622C18.44 1 16.76 1 13.4 1h-2.8c-3.36 0-5.04 0-6.324.654a6 6 0 0 0-2.622 2.622ZM13.4 3h-2.8c-1.713 0-2.878.002-3.778.075-.877.072-1.325.202-1.638.361a4 4 0 0 0-1.748 1.748c-.16.313-.29.761-.36 1.638C3.001 7.722 3 8.887 3 10.6v2.8c0 1.713.002 2.878.075 3.778.072.877.202 1.325.361 1.638a4 4 0 0 0 1.748 1.748c.313.16.761.29 1.638.36.9.074 2.065.076 3.778.076h2.8c1.713 0 2.878-.002 3.778-.075.877-.072 1.325-.202 1.638-.361a4 4 0 0 0 1.748-1.748c.16-.313.29-.761.36-1.638.074-.9.076-2.065.076-3.778v-2.8c0-1.713-.002-2.878-.075-3.778-.072-.877-.202-1.325-.361-1.638a4 4 0 0 0-1.748-1.748c-.313-.16-.761-.29-1.638-.36C16.278 3.001 15.113 3 13.4 3Z"/></svg><svg viewBox="0 0 512 512" xml:space="preserve" id="letter" xmlns="http://www.w3.org/2000/svg"><path d="M508.65 115.988 363.186 261.451 505.061 403.43c4.295-7.385 6.939-15.85 6.939-24.992V133.563c0-6.206-1.278-12.087-3.35-17.575zm-46.737-32.512H50.087c-8.327 0-16.066 2.236-22.982 5.847L245.76 307.976c6.344 6.344 17.363 6.344 23.596 0l217.626-217.52c-7.402-4.323-15.894-6.98-25.069-6.98zM4.201 113.611C1.527 119.733 0 126.465 0 133.563v244.875c0 8.997 2.573 17.327 6.743 24.632L150.15 259.56 4.201 113.611z"/><path d="m339.478 285.159-46.414 46.525c-19.496 19.275-51.084 19.591-70.901 0l-48.306-48.417-141.851 141.75c5.625 2.192 11.69 3.507 18.081 3.507h411.826c6.235 0 12.146-1.284 17.657-3.376L339.478 285.159z"/></svg><svg viewBox="0 0 25 26" id="location" xmlns="http://www.w3.org/2000/svg"><path d="M12.399 6.744a3.132 3.132 0 0 0-2.887 1.923 3.105 3.105 0 0 0 .677 3.394 3.127 3.127 0 0 0 3.406.675 3.123 3.123 0 0 0 1.402-1.147 3.107 3.107 0 0 0-.39-3.932 3.134 3.134 0 0 0-2.208-.913Zm0 4.672a1.566 1.566 0 0 1-1.444-.961 1.553 1.553 0 0 1 .339-1.697 1.564 1.564 0 0 1 2.667 1.1 1.565 1.565 0 0 1-1.562 1.558Z"/><path d="M18.404 3.869A8.511 8.511 0 0 0 7.05 3.28a8.441 8.441 0 0 0-1.767 11.193l5.903 9.033a1.445 1.445 0 0 0 1.212.654 1.45 1.45 0 0 0 1.211-.654l5.904-9.033a8.442 8.442 0 0 0-1.11-10.605Zm-.199 9.755L12.4 22.508l-5.807-8.884A6.922 6.922 0 0 1 7.5 4.97a6.931 6.931 0 0 1 4.9-2.023 6.95 6.95 0 0 1 4.9 2.023c2.302 2.295 2.684 5.934.906 8.654Z"/></svg><svg viewBox="0 0 21 21" id="phone" xmlns="http://www.w3.org/2000/svg"><path d="M18.313 20.448h-.133C2.828 19.568.648 6.658.344 2.718A2.329 2.329 0 0 1 1.618.45 2.35 2.35 0 0 1 2.5.203h4.305a1.566 1.566 0 0 1 1.453.981l1.187 2.912a1.553 1.553 0 0 1-.343 1.682L7.437 7.452a7.288 7.288 0 0 0 2.027 3.888 7.329 7.329 0 0 0 3.895 2.03l1.696-1.674a1.564 1.564 0 0 1 1.695-.32l2.945 1.177A1.56 1.56 0 0 1 20.656 14v4.111c0 .62-.247 1.214-.686 1.652a2.348 2.348 0 0 1-1.657.684ZM2.687 1.76a.783.783 0 0 0-.78.78v.06c.359 4.61 2.663 15.511 16.359 16.29a.782.782 0 0 0 .828-.732V14l-2.946-1.176-2.242 2.22-.375-.047c-6.797-.85-7.719-7.623-7.719-7.694l-.046-.373 2.218-2.235L6.812 1.76H2.687Z"/></svg><svg viewBox="0 0 24 24" id="tl" xmlns="http://www.w3.org/2000/svg"><path d="m20.665 3.717-17.73 6.837c-1.21.486-1.203 1.161-.222 1.462l4.552 1.42 10.532-6.645c.498-.303.953-.14.579.192l-8.533 7.701h-.002l.002.001-.314 4.692c.46 0 .663-.211.921-.46l2.211-2.15 4.599 3.397c.848.467 1.457.227 1.668-.785l3.019-14.228c.309-1.239-.473-1.8-1.282-1.434z"/></svg><svg viewBox="-2.5 0 32 32" id="vk" xmlns="http://www.w3.org/2000/svg"><path d="M16.563 15.75c-.5-.188-.5-.906-.531-1.406-.125-1.781.5-4.5-.25-5.656-.531-.688-3.094-.625-4.656-.531-.438.063-.969.156-1.344.344s-.75.5-.75.781c0 .406.938.344 1.281.875.375.563.375 1.781.375 2.781 0 1.156-.188 2.688-.656 2.75-.719.031-1.125-.688-1.5-1.219a20.851 20.851 0 0 1-2.063-3.563c-.281-.656-.438-1.375-.844-1.656-.625-.438-1.75-.469-2.844-.438-1 .031-2.438-.094-2.719.5-.219.656.25 1.281.5 1.813 1.281 2.781 2.656 5.219 4.344 7.531 1.563 2.156 3.031 3.875 5.906 4.781.813.25 4.375.969 5.094 0 .25-.375.188-1.219.313-1.844s.281-1.25.875-1.281c.5-.031.781.406 1.094.719.344.344.625.625.875.938.594.594 1.219 1.406 1.969 1.719 1.031.438 2.625.313 4.125.25 1.219-.031 2.094-.281 2.188-1 .063-.563-.563-1.375-.938-1.844-.938-1.156-1.375-1.5-2.438-2.563-.469-.469-1.063-.969-1.063-1.531-.031-.344.25-.656.5-1 1.094-1.625 2.188-2.781 3.188-4.469.281-.5.938-1.656.688-2.219-.281-.625-1.844-.438-2.813-.438-1.25 0-2.875-.094-3.188.156-.594.406-.844 1.063-1.125 1.688-.625 1.438-1.469 2.906-2.344 4-.313.375-.906 1.156-1.25 1.031z"/></svg></svg>