<svg width="24" height="24" fill="none" xmlns="http://www.w3.org/2000/svg"><path d="M12 22a9.97 9.97 0 0 0 7.071-2.929A9.97 9.97 0 0 0 22 12a9.969 9.969 0 0 0-2.929-7.071A9.969 9.969 0 0 0 12 2a9.969 9.969 0 0 0-7.071 2.929A9.969 9.969 0 0 0 2 12a9.969 9.969 0 0 0 2.929 7.071A9.969 9.969 0 0 0 12 22Z" stroke="#F94343" stroke-linejoin="round"/><path fill-rule="evenodd" clip-rule="evenodd" d="M12 19a1 1 0 1 0 0-2 1 1 0 0 0 0 2Z" fill="#F94343"/><path d="M12 6v8" stroke="#F94343" stroke-width="1.5" stroke-linecap="round" stroke-linejoin="round"/></svg>