<?xml version="1.0" encoding="utf-8"?><svg viewBox="0 0 50 50" xmlns="http://www.w3.org/2000/svg" xmlns:xlink="http://www.w3.org/1999/xlink"><style>:root>svg{display:none}:root>svg:target{display:block}</style><svg viewBox="0 0 8 14" id="arrow" xmlns="http://www.w3.org/2000/svg"><path d="m0 12 5-5-5-5 1-2 7 7-7 7-1-2Z"/></svg><svg viewBox="0 0 24 24" id="calendar" xmlns="http://www.w3.org/2000/svg"><path d="M19.499 3h-2.25v-.75a.75.75 0 1 0-1.5 0V3h-7.5v-.75a.75.75 0 1 0-1.5 0V3h-2.25a1.501 1.501 0 0 0-1.5 1.5v15a1.501 1.501 0 0 0 1.5 1.5h15a1.501 1.501 0 0 0 1.5-1.5v-15a1.501 1.501 0 0 0-1.5-1.5Zm0 4.5h-15v-3h2.25v.75a.75.75 0 0 0 1.5 0V4.5h7.5v.75a.75.75 0 1 0 1.5 0V4.5h2.25v3Z"/></svg><svg viewBox="0 0 50 50" id="close" xmlns="http://www.w3.org/2000/svg"><path d="M7.719 6.281 6.28 7.72 23.563 25 6.28 42.281l1.44 1.439L25 26.437 42.281 43.72l1.438-1.438L26.437 25 43.72 7.719 42.28 6.28 25 23.563Z"/></svg><svg viewBox="0 0 20 20" id="instagram" xmlns="http://www.w3.org/2000/svg"><path fill-rule="evenodd" clip-rule="evenodd" d="M8.906.003H10c3.257 0 3.643.012 4.93.07 1.189.055 1.834.253 2.264.42.57.221.975.486 1.402.913.427.427.691.833.913 1.403.167.43.366 1.075.42 2.264.058 1.286.071 1.673.071 4.929 0 3.255-.013 3.642-.071 4.928-.054 1.19-.253 1.835-.42 2.265a3.774 3.774 0 0 1-.913 1.401 3.772 3.772 0 0 1-1.402.912c-.43.168-1.075.366-2.265.42-1.286.06-1.672.072-4.929.072-3.257 0-3.643-.013-4.929-.071-1.19-.055-1.835-.254-2.265-.42a3.778 3.778 0 0 1-1.403-.913 3.781 3.781 0 0 1-.913-1.402c-.167-.43-.366-1.076-.42-2.265C.012 13.643 0 13.257 0 9.999S.012 6.356.07 5.07c.055-1.19.253-1.835.42-2.265a3.78 3.78 0 0 1 .913-1.403A3.786 3.786 0 0 1 2.806.49C3.236.322 3.882.123 5.07.07 6.196.018 6.632.003 8.906 0v.003Zm7.606 2.026a1.464 1.464 0 1 0 0 2.927 1.464 1.464 0 0 0 0-2.927ZM10 3.739a6.265 6.265 0 1 0 .001 12.53 6.265 6.265 0 0 0 0-12.53Z"/><path fill-rule="evenodd" clip-rule="evenodd" d="M10 5.938a4.066 4.066 0 1 1 0 8.133 4.066 4.066 0 0 1 0-8.133Z"/></svg><svg viewBox="0 0 24 24" id="interior" xmlns="http://www.w3.org/2000/svg"><path fill-rule="evenodd" clip-rule="evenodd" d="M.934.167a.934.934 0 0 0-.858 1.301l4.768 11.126-1.975 2.633-.608-.076a1.908 1.908 0 0 0-2.144 1.895v2.952a3.712 3.712 0 0 0 3.71 3.71h16.582a3.13 3.13 0 0 0 3.133-3.132 3.14 3.14 0 0 0-2.747-3.11l-12.5-1.562-3.377-7.877h7.456a.934.934 0 1 0 0-1.868H4.118L2.35 2.034h2.087a.934.934 0 1 0 0-1.867H.934Zm4.07 15.326.689-.918.454 1.061-1.143-.143Z"/></svg><svg viewBox="0 0 18 22" id="location" xmlns="http://www.w3.org/2000/svg"><path d="M8.999.5a8.26 8.26 0 0 0-8.25 8.25c0 7.059 7.5 12.39 7.82 12.614a.752.752 0 0 0 .86 0c.32-.223 7.82-5.555 7.82-12.614A8.26 8.26 0 0 0 8.999.5Zm0 5.25a3 3 0 1 1 0 6 3 3 0 0 1 0-6Z"/></svg><svg viewBox="0 0 16 17" id="phone" xmlns="http://www.w3.org/2000/svg"><path d="M15.223 11.245 11.47 9.637a1.279 1.279 0 0 0-1.217.112l-2.006 1.337a6.133 6.133 0 0 1-2.822-2.808L6.76 6.24a1.28 1.28 0 0 0 .105-1.207l-1.61-3.757A1.284 1.284 0 0 0 3.92.51 4.493 4.493 0 0 0 0 4.961C0 11.324 5.176 16.5 11.539 16.5a4.493 4.493 0 0 0 4.452-3.92 1.285 1.285 0 0 0-.768-1.335Z"/></svg><svg viewBox="0 0 24 24" id="required" xmlns="http://www.w3.org/2000/svg"><path d="M12 22a9.97 9.97 0 0 0 7.071-2.929A9.97 9.97 0 0 0 22 12a9.969 9.969 0 0 0-2.929-7.071A9.969 9.969 0 0 0 12 2a9.969 9.969 0 0 0-7.071 2.929A9.969 9.969 0 0 0 2 12a9.969 9.969 0 0 0 2.929 7.071A9.969 9.969 0 0 0 12 22Z"/><path fill-rule="evenodd" clip-rule="evenodd" d="M12 19a1 1 0 1 0 0-2 1 1 0 0 0 0 2Z"/><path d="M12 6v8"/></svg><svg viewBox="0 0 28 28" id="trainers" xmlns="http://www.w3.org/2000/svg"><path d="M14 17.938a4.812 4.812 0 1 0 0-9.625 4.812 4.812 0 0 0 0 9.624Z"/><path d="M22.75 3.5H5.25A1.752 1.752 0 0 0 3.5 5.25v17.5a1.752 1.752 0 0 0 1.75 1.75h17.5a1.752 1.752 0 0 0 1.75-1.75V5.25a1.752 1.752 0 0 0-1.75-1.75Zm0 19.25h-.402a8.798 8.798 0 0 0-2.851-4.183 8.65 8.65 0 0 0-.982-.686 6.545 6.545 0 0 1-9.03 0 8.656 8.656 0 0 0-.982.686 8.798 8.798 0 0 0-2.851 4.183H5.25V5.25h17.5l.001 17.5h-.001Z"/></svg><svg viewBox="0 0 28 18" id="users" xmlns="http://www.w3.org/2000/svg"><path d="M13.256 12.275a6.562 6.562 0 1 0-7.262 0 10.523 10.523 0 0 0-4.96 3.812.875.875 0 0 0 .716 1.378H17.5a.875.875 0 0 0 .715-1.38 10.523 10.523 0 0 0-4.959-3.81Z"/><path d="M27.132 16.086a10.523 10.523 0 0 0-4.96-3.81A6.563 6.563 0 0 0 16.762.493a.875.875 0 0 0-.466 1.365 8.294 8.294 0 0 1 .42 9.285.876.876 0 0 0 .224 1.16c.332.246.651.51.956.788a.894.894 0 0 0 .05.05 12.253 12.253 0 0 1 2.786 3.819.875.875 0 0 0 .793.504h4.892a.877.877 0 0 0 .715-1.38Z"/></svg></svg>