<svg width="22" height="24" fill="none" xmlns="http://www.w3.org/2000/svg"><path d="M11 7.428A4.578 4.578 0 0 0 6.427 12 4.578 4.578 0 0 0 11 16.573 4.578 4.578 0 0 0 15.573 12 4.578 4.578 0 0 0 11 7.428Zm2.715 3.711-3.276 3.276a.702.702 0 0 1-.996 0L8.19 13.163a.704.704 0 1 1 .996-.995l.754.754 2.778-2.778a.704.704 0 1 1 .996.995Z" fill="#F69A1B"/><path d="m21.195 6.512-.001-.019c-.01-.23-.017-.474-.022-.746a2.544 2.544 0 0 0-2.395-2.492c-2.759-.154-4.894-1.053-6.718-2.831l-.015-.015a1.536 1.536 0 0 0-2.087 0L9.94.424C8.117 2.202 5.982 3.1 3.223 3.256A2.543 2.543 0 0 0 .828 5.748c-.004.27-.011.513-.022.745v.044C.751 9.35.684 12.852 1.855 16.03c.645 1.748 1.62 3.267 2.9 4.516 1.457 1.422 3.367 2.552 5.674 3.356A1.764 1.764 0 0 0 11 24a1.727 1.727 0 0 0 .571-.097c2.305-.806 4.212-1.936 5.668-3.358 1.28-1.25 2.255-2.77 2.9-4.518 1.176-3.188 1.11-6.696 1.056-9.515ZM11 17.982A5.988 5.988 0 0 1 5.019 12a5.988 5.988 0 0 1 5.98-5.98A5.988 5.988 0 0 1 16.982 12 5.988 5.988 0 0 1 11 17.982Z" fill="#F69A1B"/></svg>