<svg width="24" height="24" fill="none" xmlns="http://www.w3.org/2000/svg"><g clip-path="url(#a)" fill="#F69A1B"><path d="M15.966 11.653v.607a2.604 2.604 0 0 1-2.6 2.601h-2.732a2.604 2.604 0 0 1-2.6-2.601v-.607H0v7.863a2.395 2.395 0 0 0 2.392 2.393h19.216A2.395 2.395 0 0 0 24 19.515v-7.863h-8.034Z"/><path d="M9.458 12.26c0 .649.528 1.176 1.176 1.176h2.731c.649 0 1.177-.527 1.177-1.176v-.607H9.458v.607ZM24 10.229V8.113a2.395 2.395 0 0 0-2.392-2.393h-5.232V3.944a1.836 1.836 0 0 0-1.835-1.835H9.46a1.836 1.836 0 0 0-1.835 1.835V5.72H2.392A2.395 2.395 0 0 0 0 8.113v2.115h24ZM9.05 3.944a.41.41 0 0 1 .409-.41h5.082a.41.41 0 0 1 .41.41V5.72H9.049V3.944Z"/></g><defs><clipPath id="a"><path fill="#fff" d="M0 0h24v24H0z"/></clipPath></defs></svg>