<svg width="24" height="24" fill="none" xmlns="http://www.w3.org/2000/svg"><path d="M16.5 0h-9A7.5 7.5 0 0 0 0 7.5v9A7.5 7.5 0 0 0 7.5 24h9a7.5 7.5 0 0 0 7.5-7.5v-9A7.5 7.5 0 0 0 16.5 0Zm5.25 16.5a5.256 5.256 0 0 1-5.25 5.25h-9a5.256 5.256 0 0 1-5.25-5.25v-9A5.256 5.256 0 0 1 7.5 2.25h9a5.256 5.256 0 0 1 5.25 5.25v9Z" fill="url(#a)"/><path d="M12 6a6 6 0 1 0 0 12 6 6 0 0 0 0-12Zm0 9.75A3.755 3.755 0 0 1 8.25 12 3.754 3.754 0 0 1 12 8.25 3.754 3.754 0 0 1 15.75 12 3.755 3.755 0 0 1 12 15.75Z" fill="url(#b)"/><path d="M18.45 6.35a.8.8 0 1 0 0-1.599.8.8 0 0 0 0 1.599Z" fill="url(#c)"/><defs><linearGradient id="a" x1="2.197" y1="21.803" x2="21.803" y2="2.197" gradientUnits="userSpaceOnUse"><stop stop-color="#FFC107"/><stop offset=".507" stop-color="#F44336"/><stop offset=".99" stop-color="#9C27B0"/></linearGradient><linearGradient id="b" x1="7.757" y1="16.242" x2="16.242" y2="7.757" gradientUnits="userSpaceOnUse"><stop stop-color="#FFC107"/><stop offset=".507" stop-color="#F44336"/><stop offset=".99" stop-color="#9C27B0"/></linearGradient><linearGradient id="c" x1="17.885" y1="6.116" x2="19.015" y2="4.985" gradientUnits="userSpaceOnUse"><stop stop-color="#FFC107"/><stop offset=".507" stop-color="#F44336"/><stop offset=".99" stop-color="#9C27B0"/></linearGradient></defs></svg>