<svg width="40" height="40" fill="none" xmlns="http://www.w3.org/2000/svg"><path d="M14.375 9.688h11.25a.938.938 0 0 0 .938-.938V4.375a.938.938 0 0 0-.938-.937h-1.672a4.063 4.063 0 0 0-7.906 0h-1.672a.938.938 0 0 0-.938.937V8.75a.938.938 0 0 0 .938.938ZM20 3.438a.937.937 0 1 1 0 1.874.937.937 0 0 1 0-1.874Zm-6.875 13.75h3.75a.938.938 0 0 0 .938-.938V12.5a.938.938 0 0 0-.938-.938h-3.75a.938.938 0 0 0-.938.938v3.75a.938.938 0 0 0 .938.938Zm.938-3.75h1.874v1.874h-1.874v-1.874Zm-.938 11.875h3.75a.938.938 0 0 0 .938-.938v-3.75a.938.938 0 0 0-.938-.938h-3.75a.938.938 0 0 0-.938.938v3.75a.938.938 0 0 0 .938.938Zm.938-3.75h1.874v1.875h-1.874v-1.875Zm6.562-8.125a.938.938 0 0 0 0 1.874h5.625a.938.938 0 0 0 0-1.874h-5.625Zm5.625 8.125h-5.625a.938.938 0 0 0 0 1.875h5.625a.938.938 0 0 0 0-1.875Zm5.313-17.188V25a7.764 7.764 0 0 1 3.75.96V5.313a1.877 1.877 0 0 0-1.876-1.875h-2.812a.937.937 0 0 1 .938.938Z" fill="#5477BB"/><path d="M9.375 32.813a.938.938 0 0 1-.938-.938v-27.5a.937.937 0 0 1 .938-.938H6.641a1.877 1.877 0 0 0-1.875 1.876v29.375a1.877 1.877 0 0 0 1.875 1.874h18.07a7.764 7.764 0 0 1-.961-3.75H9.375Zm22.188-6.875a6.875 6.875 0 1 0 6.875 6.875 6.883 6.883 0 0 0-6.876-6.876ZM35.35 31.6l-3.75 3.75a.937.937 0 0 1-1.325 0L28.4 33.475a.938.938 0 0 1 1.325-1.325l1.212 1.212 3.088-3.087A.938.938 0 0 1 35.35 31.6Z" fill="#5477BB"/></svg>