<svg width="40" height="40" fill="none" xmlns="http://www.w3.org/2000/svg"><path d="M30.43 6.83c0-.939-.366-1.822-1.03-2.486L26.088 1.03A3.594 3.594 0 0 0 23.578 0h-.201v7.031h7.054V6.83Z" fill="#5477BB"/><path d="M21.401 24.183a4.704 4.704 0 0 1 1.126-1.83l7.935-7.902V9.375h-8.234c-.648 0-1.134-.524-1.134-1.172V0H3.516A3.52 3.52 0 0 0 0 3.516v32.968A3.52 3.52 0 0 0 3.516 40h23.4c1.938 0 3.546-1.577 3.546-3.516v-8.746l-1.288 1.257a4.66 4.66 0 0 1-1.822 1.124l-3.726 1.244-.568.03a2.94 2.94 0 0 1-2.378-1.22 2.939 2.939 0 0 1-.398-2.64l1.12-3.35ZM5.86 21.093h11.68a1.171 1.171 0 1 1 0 2.345H5.86a1.171 1.171 0 1 1 0-2.344Zm-1.171-3.515a1.17 1.17 0 0 1 1.171-1.172h11.68a1.171 1.171 0 1 1 0 2.344H5.86a1.171 1.171 0 0 1-1.173-1.172Zm0 9.375a1.17 1.17 0 0 1 1.171-1.172h11.68a1.171 1.171 0 1 1 0 2.344H5.86a1.171 1.171 0 0 1-1.173-1.172Zm17.54 5.86a1.171 1.171 0 1 1 0 2.343h-7.032a1.171 1.171 0 1 1 0-2.343h7.032Zm-16.37-18.75a1.171 1.171 0 1 1 0-2.344h16.369a1.171 1.171 0 1 1 0 2.344H5.859Z" fill="#5477BB"/><path d="m23.524 25.22-1.02 3.058a.586.586 0 0 0 .742.74l3.057-1.02-2.779-2.779Zm9.102-9.65-7.718 7.719 3.328 3.328 7.718-7.718-3.328-3.328Zm6.685-3.36c-.412-.415-1.018-.651-1.661-.651-.644 0-1.25.237-1.664.652l-1.703 1.703 3.328 3.328 1.703-1.703a2.359 2.359 0 0 0-.003-3.33Zm.003 3.329.007-.007-.007.007Zm.006-.008.01-.01-.01.01Z" fill="#5477BB"/><path d="M39.331 15.521c.008-.007.008-.007 0 0Z" fill="#5477BB"/></svg>