<svg width="40" height="40" fill="none" xmlns="http://www.w3.org/2000/svg"><g clip-path="url(#a)" fill="#5477BB"><path d="M31.357 4.255H17.352v3.913a11.26 11.26 0 0 1 6.95 3.273 11.294 11.294 0 0 1 2.793 4.58h8.596v2.353h-8.118a11.539 11.539 0 0 1 .017 1.987h8.101v2.352h-8.536a11.15 11.15 0 0 1-.892 2.152h2.57v2.352h-4.27c-.086.091-.172.182-.261.27a11.26 11.26 0 0 1-6.95 3.274v1.708H40V12.872h-8.643V4.255Z"/><path d="m39.31 10.52-5.6-5.577v5.577h5.6ZM10.74 26.659a9.01 9.01 0 0 0 5.539 1.884 9.019 9.019 0 0 0 6.42-2.659 9.019 9.019 0 0 0 2.658-6.42 9.02 9.02 0 0 0-2.659-6.419 9.019 9.019 0 0 0-6.42-2.659 9.019 9.019 0 0 0-6.419 2.66c-3.26 3.259-3.517 8.4-.774 11.957l-1.163 1.163-.753.064-2.452.205 4.592 4.592.205-2.45.063-.756 1.162-1.162Zm.774-11.96a6.694 6.694 0 0 1 4.765-1.973c1.8 0 3.492.701 4.764 1.974a6.694 6.694 0 0 1 1.974 4.765c0 1.8-.7 3.491-1.974 4.764a6.694 6.694 0 0 1-4.764 1.974c-1.8 0-3.492-.701-4.765-1.974a6.694 6.694 0 0 1-1.974-4.764c0-1.8.701-3.492 1.974-4.765ZM.964 30.119a3.3 3.3 0 0 0 0 4.66c.622.623 1.45.966 2.33.966.88 0 1.708-.343 2.33-.965l2.064-2.064-4.66-4.66-2.064 2.063Z"/></g><defs><clipPath id="a"><path fill="#fff" d="M0 0h40v40H0z"/></clipPath></defs></svg>