<?xml version="1.0" encoding="utf-8"?><svg viewBox="0 0 24 24" xmlns="http://www.w3.org/2000/svg" xmlns:xlink="http://www.w3.org/1999/xlink"><style>:root>svg{display:none}:root>svg:target{display:block}</style><svg viewBox="0 0 20 12" id="arrow" xmlns="http://www.w3.org/2000/svg"><path d="M14.583 11.417L20 6 14.583.583l-.589.59 4.411 4.41H0v.834h18.405l-4.41 4.41.588.59z"/></svg><svg viewBox="0 0 6 10" id="icon-arrow" xmlns="http://www.w3.org/2000/svg"><path d="M1.132 9.403a.31.31 0 01-.224.093.318.318 0 01-.225-.543L4.636 5 .683 1.047a.318.318 0 01.45-.45L5.31 4.775a.318.318 0 010 .45L1.132 9.403z"/></svg><svg viewBox="0 0 24 24" id="paper-plane" xmlns="http://www.w3.org/2000/svg"><g clip-path="url(#ca)"><path d="M.101 13.36a.188.188 0 00.02.342l6.658 2.493L23.42 1.267.101 13.36zm10.81 3.809l-1.034 5.548 3.037-4.521 7.13 2.98a.189.189 0 00.258-.138L24 1.52 10.911 17.17z"/><path d="M7.182 16.59l2.119 6.144 1.07-5.74a.284.284 0 01.06-.13l10.69-12.78L7.183 16.59z"/></g><defs><clipPath id="ca"><path d="M0 0h24v24H0z"/></clipPath></defs></svg><svg viewBox="0 0 17 17" id="phone" xmlns="http://www.w3.org/2000/svg"><path d="M12.662 16.505h-.023a12.775 12.775 0 01-8.56-3.582A12.761 12.761 0 01.496 4.367c-.005-.448.171-.88.488-1.196L3.246.91a.833.833 0 011.178 0l3.334 3.333a.833.833 0 010 1.179L6.428 6.75a6.25 6.25 0 001.328 2.493 6.238 6.238 0 002.49 1.33l1.333-1.329a.833.833 0 011.178 0l3.334 3.334a.833.833 0 010 1.178l-2.262 2.26a1.647 1.647 0 01-1.167.489zM3.833 2.679H3.83L2.163 4.35a11.038 11.038 0 003.093 7.395 11.043 11.043 0 007.394 3.094l1.672-1.671-2.16-2.155-1.077 1.077a.823.823 0 01-.758.226 8.5 8.5 0 01-3.75-1.893 8.5 8.5 0 01-1.892-3.75.833.833 0 01.228-.761l1.076-1.078L3.833 2.68z"/></svg></svg>