<?xml version="1.0" encoding="utf-8"?><svg viewBox="0 0 54 32" xmlns="http://www.w3.org/2000/svg" xmlns:xlink="http://www.w3.org/1999/xlink"><style>:root>svg{display:none}:root>svg:target{display:block}</style><svg viewBox="0 0 54 28" id="arrow" xmlns="http://www.w3.org/2000/svg"><path d="M53.381 12.507s0-.002-.002-.002L42.358 1.536a2.11 2.11 0 0 0-2.977 2.99l7.4 7.365H2.11a2.11 2.11 0 1 0 0 4.218h44.672l-7.4 7.365a2.11 2.11 0 0 0 2.977 2.99L53.38 15.495l.001-.002a2.111 2.111 0 0 0 0-2.986Z"/></svg><svg viewBox="0 0 10 10" id="calendar" xmlns="http://www.w3.org/2000/svg"><path d="M1.511 10H8.49c.732 0 1.326-.594 1.326-1.326V2.067A1.329 1.329 0 0 0 8.49.74h-.526V.37A.371.371 0 0 0 7.593 0a.371.371 0 0 0-.37.37v.37H2.778V.37a.371.371 0 0 0-.37-.37.371.371 0 0 0-.37.37v.37H1.51C.78.74.186 1.336.186 2.068v6.607C.186 9.406.78 10 1.51 10ZM.926 2.067c0-.323.263-.586.585-.586h.526v.37a.371.371 0 0 0 .741.001v-.37h4.445v.37a.37.37 0 0 0 .74 0v-.37h.526c.322 0 .585.262.585.585v6.607a.586.586 0 0 1-.585.585H1.511a.586.586 0 0 1-.585-.585V2.067Z"/><path d="M2.871 4.259a.463.463 0 1 0 0-.926.463.463 0 0 0 0 .926Zm2.037 0a.463.463 0 1 0 0-.926.463.463 0 0 0 0 .926Zm2.037 0a.463.463 0 1 0 0-.926.463.463 0 0 0 0 .926ZM2.871 6.111a.463.463 0 1 0 0-.925.463.463 0 0 0 0 .925Zm2.037 0a.463.463 0 1 0 0-.925.463.463 0 0 0 0 .925Zm2.037 0a.463.463 0 1 0 0-.925.463.463 0 0 0 0 .925ZM2.871 7.963a.463.463 0 1 0 0-.926.463.463 0 0 0 0 .926Zm2.037 0a.463.463 0 1 0 0-.926.463.463 0 0 0 0 .926Zm2.037 0a.463.463 0 1 0 0-.926.463.463 0 0 0 0 .926Z"/></svg><svg viewBox="0 0 32 32" id="clock" xmlns="http://www.w3.org/2000/svg"><g clip-path="url(#ca)"><path d="m21.7 18.826-4.462-3.346V8.663a1.238 1.238 0 1 0-2.478 0V16.1c0 .39.183.759.495.992l4.958 3.718c.223.167.483.248.742.248.378 0 .75-.17.993-.497.412-.547.3-1.324-.248-1.734Z"/><path d="M16 0C7.177 0 0 7.177 0 16s7.177 16 16 16 16-7.177 16-16S24.823 0 16 0Zm0 29.521C8.545 29.521 2.479 23.455 2.479 16 2.479 8.545 8.545 2.479 16 2.479c7.456 0 13.521 6.066 13.521 13.521 0 7.455-6.066 13.521-13.521 13.521Z"/></g><defs><clipPath id="ca"><path d="M0 0h32v32H0z"/></clipPath></defs></svg><svg viewBox="0 0 10 18" id="fb" xmlns="http://www.w3.org/2000/svg"><path d="M2.727 9.923H.588c-.345 0-.453-.13-.453-.453V6.856c0-.346.13-.454.453-.454h2.139v-1.9c0-.864.151-1.685.583-2.441C3.764 1.283 4.412.765 5.232.462c.54-.194 1.08-.28 1.664-.28h2.116c.303 0 .432.13.432.432v2.462c0 .302-.13.432-.432.432-.583 0-1.166 0-1.75.022-.582 0-.885.28-.885.885-.021.648 0 1.275 0 1.944h2.506c.345 0 .475.13.475.475v2.614c0 .346-.108.454-.475.454H6.377v7.041c0 .367-.108.497-.497.497h-2.7c-.324 0-.453-.13-.453-.454V9.923Z"/></svg><svg viewBox="0 0 16 16" id="inst" xmlns="http://www.w3.org/2000/svg"><g clip-path="url(#ea)"><path d="M15.984 4.704c-.038-.85-.175-1.435-.372-1.941a3.905 3.905 0 0 0-.926-1.419 3.937 3.937 0 0 0-1.415-.922C12.76.225 12.18.088 11.33.05 10.473.01 10.2 0 8.029 0S5.585.01 4.73.047c-.85.037-1.434.175-1.94.372a3.904 3.904 0 0 0-1.42.925A3.94 3.94 0 0 0 .45 2.76C.252 3.27.115 3.85.077 4.7c-.04.857-.05 1.13-.05 3.302s.01 2.444.047 3.297c.038.85.175 1.435.372 1.941.203.538.519 1.019.925 1.42.4.405.885.721 1.416.921.51.197 1.091.335 1.941.372.854.038 1.126.047 3.298.047s2.444-.01 3.297-.047c.85-.037 1.435-.175 1.941-.372a4.092 4.092 0 0 0 2.341-2.34c.197-.51.335-1.092.372-1.942.038-.853.047-1.125.047-3.297 0-2.173-.003-2.445-.04-3.298Zm-1.441 6.533c-.035.781-.166 1.203-.275 1.484a2.654 2.654 0 0 1-1.52 1.52c-.28.109-.706.24-1.484.274-.844.038-1.097.047-3.232.047-2.135 0-2.391-.01-3.232-.047-.781-.034-1.203-.165-1.485-.275a2.462 2.462 0 0 1-.918-.597 2.488 2.488 0 0 1-.597-.919c-.11-.28-.241-.706-.275-1.484-.038-.844-.047-1.097-.047-3.232 0-2.135.009-2.391.047-3.232.034-.781.165-1.203.275-1.485a2.42 2.42 0 0 1 .6-.919c.26-.265.572-.469.919-.597.28-.109.706-.24 1.484-.275.844-.037 1.097-.047 3.232-.047 2.138 0 2.391.01 3.232.047.782.035 1.203.166 1.485.275.347.128.662.332.919.597.265.26.469.572.597.92.11.28.24.706.275 1.484.037.844.047 1.097.047 3.232 0 2.135-.01 2.385-.047 3.229Z"/><path d="M8.03 3.892a4.111 4.111 0 0 0 0 8.22 4.111 4.111 0 0 0 0-8.22Zm0 6.776a2.667 2.667 0 1 1 0-5.333 2.667 2.667 0 0 1 0 5.333Zm5.233-6.938a.96.96 0 1 1-1.92-.001.96.96 0 0 1 1.92 0Z"/></g><defs><clipPath id="ea"><path d="M0 0h16v16H0z"/></clipPath></defs></svg><svg viewBox="0 0 9 9" id="mark" xmlns="http://www.w3.org/2000/svg"><path d="M3.2 1.863a.375.375 0 0 0-.246.665l2.294 1.965L2.954 6.46a.375.375 0 1 0 .487.567l2.627-2.248a.375.375 0 0 0 0-.57l-2.627-2.25a.375.375 0 0 0-.24-.095Z"/></svg><svg viewBox="0 0 29 29" id="wallet" xmlns="http://www.w3.org/2000/svg"><path d="M27.625 13.406h-7.656c-2.4 0-4.375 1.976-4.375 4.375 0 2.4 1.975 4.375 4.375 4.375h4.375v3.282c0 .6-.494 1.093-1.094 1.093H5.75c-1.8 0-3.281-1.48-3.281-3.281V6.844c0-1.8 1.48-3.282 3.281-3.282h2.188c.6 0 1.093-.493 1.093-1.093s-.493-1.094-1.094-1.094H5.75c-3 0-5.469 2.469-5.469 5.469V23.25c0 3 2.469 5.469 5.469 5.469h17.5c1.8 0 3.281-1.481 3.281-3.282v-3.28h1.094a1.1 1.1 0 0 0 1.094-1.095V14.5a1.1 1.1 0 0 0-1.094-1.094Zm-1.094 6.563H19.97c-1.2 0-2.188-.988-2.188-2.188 0-1.2.988-2.187 2.188-2.187h6.562v4.375Z"/><path d="M5.356 5.826c-1.22.533-.817 2.111.394 2.111h17.5a1.1 1.1 0 0 1 1.094 1.094v1.094c0 .6.493 1.094 1.093 1.094s1.094-.494 1.094-1.094V9.03a3.282 3.282 0 0 0-3.281-3.28h-.35L20.986.97a1.1 1.1 0 0 0-1.411-.612L5.356 5.826Zm15.181-.076h-8.892l7.711-2.964 1.181 2.964Z"/></svg><svg viewBox="0 0 24 18" id="youtube" xmlns="http://www.w3.org/2000/svg"><path d="M19.46.424H4.54A4.54 4.54 0 0 0 0 4.964v8.073a4.54 4.54 0 0 0 4.54 4.54h14.92a4.54 4.54 0 0 0 4.54-4.54V4.964a4.54 4.54 0 0 0-4.54-4.54ZM8.838 12.68V5.32l6.323 3.687-6.323 3.672Z"/></svg></svg>