<?xml version="1.0" encoding="utf-8"?><svg viewBox="0 0 18 18" xmlns="http://www.w3.org/2000/svg" xmlns:xlink="http://www.w3.org/1999/xlink"><style>:root>svg{display:none}:root>svg:target{display:block}</style><svg viewBox="0 0 16 14" id="arrow" xmlns="http://www.w3.org/2000/svg"><path d="M0 8V6h12L8 2l1-2 7 7-7 7-1-2 4-4H0Z"/></svg><svg viewBox="0 0 18 18" id="search" xmlns="http://www.w3.org/2000/svg"><path d="m15.99 15.02-4.566-4.564a5.226 5.226 0 0 0 1.092-3.214c0-1.41-.55-2.731-1.546-3.728a5.234 5.234 0 0 0-3.728-1.545 5.24 5.24 0 0 0-3.728 1.545 5.232 5.232 0 0 0-1.545 3.728 5.24 5.24 0 0 0 1.545 3.728 5.231 5.231 0 0 0 3.728 1.546 5.23 5.23 0 0 0 3.212-1.09l4.565 4.563a.142.142 0 0 0 .102.042.143.143 0 0 0 .102-.042l.766-.765a.143.143 0 0 0 .031-.157.143.143 0 0 0-.03-.046Zm-5.963-4.993a3.917 3.917 0 0 1-2.785 1.153 3.917 3.917 0 0 1-2.784-1.153 3.916 3.916 0 0 1-1.153-2.785c0-1.051.41-2.04 1.153-2.784a3.916 3.916 0 0 1 2.784-1.153c1.051 0 2.041.407 2.785 1.153a3.916 3.916 0 0 1 1.153 2.784c0 1.051-.41 2.041-1.153 2.785Z"/></svg></svg>