<?xml version="1.0" standalone="no"?>
<!DOCTYPE svg PUBLIC "-//W3C//DTD SVG 20010904//EN"
 "http://www.w3.org/TR/2001/REC-SVG-20010904/DTD/svg10.dtd">
<svg version="1.0" xmlns="http://www.w3.org/2000/svg"
 width="260.000000pt" height="260.000000pt" viewBox="0 0 260.000000 260.000000"
 preserveAspectRatio="xMidYMid meet">
<metadata>
Created by potrace 1.14, written by Peter Selinger 2001-2017
</metadata>
<g transform="translate(0.000000,260.000000) scale(0.100000,-0.100000)"
fill="#000000" stroke="none">
<path d="M1520 2296 c-150 -40 -272 -206 -301 -410 -17 -126 28 -254 108 -297
30 -17 94 -20 146 -7 28 7 122 83 160 131 103 128 151 322 112 453 -17 58 -74
119 -126 134 -41 12 -42 12 -99 -4z"/>
<path d="M794 2086 c-60 -31 -121 -107 -156 -194 -18 -47 -22 -76 -22 -167 0
-99 3 -116 27 -165 33 -67 63 -102 108 -126 33 -18 119 -27 119 -13 0 4 11 10
25 13 59 15 145 122 181 226 14 41 19 83 19 160 0 97 -2 110 -30 164 -42 83
-89 119 -163 124 -46 3 -66 -1 -108 -22z"/>
<path d="M2030 1889 c-176 -34 -360 -206 -395 -368 -4 -18 -4 -57 0 -86 5 -43
14 -63 47 -99 22 -26 43 -44 48 -41 5 3 10 1 12 -5 7 -22 127 -33 163 -14 13
7 26 10 28 8 3 -3 20 4 40 15 19 11 37 18 40 15 2 -2 10 2 17 11 7 8 16 15 21
15 32 0 173 151 208 223 74 155 40 282 -88 325 -39 14 -76 14 -141 1z"/>
<path d="M1110 1383 c-126 -8 -322 -60 -425 -113 -143 -74 -219 -131 -261
-194 -43 -66 -5 -188 82 -264 46 -41 126 -92 148 -96 6 -1 16 -5 23 -9 6 -4
56 -23 110 -43 157 -57 172 -67 270 -200 56 -76 131 -132 188 -140 11 -2 29
-5 40 -7 11 -3 26 1 34 7 12 9 13 8 7 -2 -7 -11 -4 -12 11 -3 11 6 23 7 27 4
3 -3 6 -2 6 4 0 5 6 10 13 10 29 0 78 49 105 107 106 222 84 623 -44 816 -58
88 -178 132 -334 123z"/>
<path d="M1883 1145 c-82 -32 -108 -49 -173 -114 -115 -117 -136 -245 -57
-344 25 -32 77 -65 117 -75 20 -5 131 -4 150 1 30 8 96 42 118 61 12 11 22 16
22 12 0 -18 120 110 143 153 32 58 46 142 34 195 -12 49 -73 111 -124 125 -65
18 -162 12 -230 -14z"/>
</g>
</svg>
