<?xml version="1.0" encoding="utf-8"?><svg viewBox="0 0 765 619" xmlns="http://www.w3.org/2000/svg" xmlns:xlink="http://www.w3.org/1999/xlink"><style>:root>svg{display:none}:root>svg:target{display:block}</style><svg viewBox="0 0 11 16" id="arrow_down" xmlns="http://www.w3.org/2000/svg"><path d="M4.82 1.056V12.63l-2.544-2.543a.848.848 0 00-1.227 0 .848.848 0 000 1.227l4.034 4.034c.35.351.876.351 1.227 0l4.034-4.034a.848.848 0 000-1.227.848.848 0 00-1.228 0L6.573 12.63V1.056a.879.879 0 00-.877-.877.879.879 0 00-.876.877z"/></svg><svg viewBox="0 0 15 9" id="arrow_right" xmlns="http://www.w3.org/2000/svg"><path d="M1.375 5.304h10.607l-2.33 2.33a.777.777 0 000 1.125.777.777 0 001.125 0l3.696-3.697a.777.777 0 000-1.125L10.777.241a.777.777 0 00-1.125 0 .777.777 0 000 1.125l2.33 2.33H1.375a.805.805 0 00-.804.804c0 .482.402.804.804.804z"/></svg><svg fill="none" viewBox="0 0 765 619" id="blot-decore" xmlns="http://www.w3.org/2000/svg"><path d="M-154.953 141.268c61.376-70.487 182.582 20.702 358.203-19.207C355.359 87.479 364.11-4.379 485.642.177c88.789 3.31 185.541 54.578 238.714 143.895 58.641 98.479 37.324 198.738 31.34 223.067-26.713 109.124-105.998 166.687-133.968 186.348-115.24 80.953-244.555 66.767-306.592 59.992C82.1 587.957-167.386 421.583-178.495 240.701c-1.476-23.68-4.163-67.603 23.542-99.433z" fill="#F3F7FF"/><defs><linearGradient id="cpaint0_linear" x1="429.823" y1="-145.173" x2="195.583" y2="560.635" gradientUnits="userSpaceOnUse"><stop stop-color="#F3F7FF"/><stop offset="1" stop-color="#DEEEFE"/></linearGradient></defs></svg><svg fill="none" viewBox="0 0 132 115" id="dots-decore" xmlns="http://www.w3.org/2000/svg"><g opacity=".3"><mask id="da" maskUnits="userSpaceOnUse" x="0" y="0" width="11" height="11"><path d="M5.228 10.425c2.888 0 5.229-2.334 5.229-5.213C10.457 2.334 8.116 0 5.228 0 2.341 0 0 2.334 0 5.212c0 2.88 2.34 5.213 5.228 5.213z" fill="#97C3F9"/></mask><g mask="url(#da)"><path d="M5.228 10.425c2.888 0 5.229-2.334 5.229-5.213C10.457 2.334 8.116 0 5.228 0 2.341 0 0 2.334 0 5.212c0 2.88 2.34 5.213 5.228 5.213z" fill="#97C3F9"/></g><mask id="db" maskUnits="userSpaceOnUse" x="30" y="0" width="11" height="11"><path d="M35.51 10.425c2.887 0 5.228-2.334 5.228-5.213C40.738 2.334 38.397 0 35.51 0c-2.888 0-5.229 2.334-5.229 5.212 0 2.88 2.34 5.213 5.229 5.213z" fill="#97C3F9"/></mask><g mask="url(#db)"><path d="M35.51 10.425c2.887 0 5.228-2.334 5.228-5.213C40.738 2.334 38.397 0 35.51 0c-2.888 0-5.229 2.334-5.229 5.212 0 2.88 2.34 5.213 5.229 5.213z" fill="#97C3F9"/></g><mask id="dc" maskUnits="userSpaceOnUse" x="60" y="0" width="12" height="11"><path d="M65.79 10.425c2.888 0 5.229-2.334 5.229-5.213C71.019 2.334 68.679 0 65.79 0c-2.887 0-5.228 2.334-5.228 5.212 0 2.88 2.341 5.213 5.228 5.213z" fill="#97C3F9"/></mask><g mask="url(#dc)"><path d="M65.79 10.425c2.888 0 5.229-2.334 5.229-5.213C71.019 2.334 68.679 0 65.79 0c-2.887 0-5.228 2.334-5.228 5.212 0 2.88 2.341 5.213 5.228 5.213z" fill="#97C3F9"/></g><mask id="dd" maskUnits="userSpaceOnUse" x="90" y="0" width="12" height="11"><path d="M96.072 10.425c2.887 0 5.228-2.334 5.228-5.213C101.3 2.334 98.96 0 96.072 0s-5.229 2.334-5.229 5.212c0 2.88 2.341 5.213 5.229 5.213z" fill="#97C3F9"/></mask><g mask="url(#dd)"><path d="M96.072 10.425c2.887 0 5.228-2.334 5.228-5.213C101.3 2.334 98.96 0 96.072 0s-5.229 2.334-5.229 5.212c0 2.88 2.341 5.213 5.229 5.213z" fill="#97C3F9"/></g><mask id="de" maskUnits="userSpaceOnUse" x="121" y="0" width="11" height="11"><path d="M126.353 10.425c2.887 0 5.228-2.334 5.228-5.213 0-2.878-2.341-5.212-5.228-5.212-2.888 0-5.229 2.334-5.229 5.212 0 2.88 2.341 5.213 5.229 5.213z" fill="#97C3F9"/></mask><g mask="url(#de)"><path d="M126.353 10.425c2.887 0 5.228-2.334 5.228-5.213 0-2.878-2.341-5.212-5.228-5.212-2.888 0-5.229 2.334-5.229 5.212 0 2.88 2.341 5.213 5.229 5.213z" fill="#97C3F9"/></g><mask id="df" maskUnits="userSpaceOnUse" x="0" y="26" width="11" height="11"><path d="M5.228 36.596c2.888 0 5.229-2.334 5.229-5.213 0-2.878-2.341-5.212-5.229-5.212C2.341 26.17 0 28.505 0 31.383c0 2.88 2.34 5.213 5.228 5.213z" fill="#97C3F9)"/></mask><g mask="url(#df)"><path d="M5.228 36.596c2.888 0 5.229-2.334 5.229-5.213 0-2.878-2.341-5.212-5.229-5.212C2.341 26.17 0 28.505 0 31.383c0 2.88 2.34 5.213 5.228 5.213z" fill="#97C3F9)"/></g><mask id="dg" maskUnits="userSpaceOnUse" x="30" y="26" width="11" height="11"><path d="M35.51 36.596c2.887 0 5.228-2.334 5.228-5.213 0-2.878-2.341-5.212-5.228-5.212-2.888 0-5.229 2.334-5.229 5.212 0 2.88 2.34 5.213 5.229 5.213z" fill="#97C3F9)"/></mask><g mask="url(#dg)"><path d="M35.51 36.596c2.887 0 5.228-2.334 5.228-5.213 0-2.878-2.341-5.212-5.228-5.212-2.888 0-5.229 2.334-5.229 5.212 0 2.88 2.34 5.213 5.229 5.213z" fill="#97C3F9)"/></g><mask id="dh" maskUnits="userSpaceOnUse" x="60" y="26" width="12" height="11"><path d="M65.79 36.596c2.888 0 5.229-2.334 5.229-5.213 0-2.878-2.34-5.212-5.229-5.212-2.887 0-5.228 2.334-5.228 5.212 0 2.88 2.341 5.213 5.228 5.213z" fill="#97C3F9)"/></mask><g mask="url(#dh)"><path d="M65.79 36.596c2.888 0 5.229-2.334 5.229-5.213 0-2.878-2.34-5.212-5.229-5.212-2.887 0-5.228 2.334-5.228 5.212 0 2.88 2.341 5.213 5.228 5.213z" fill="#97C3F9)"/></g><mask id="di" maskUnits="userSpaceOnUse" x="90" y="26" width="12" height="11"><path d="M96.072 36.596c2.887 0 5.228-2.334 5.228-5.213 0-2.878-2.34-5.212-5.228-5.212s-5.229 2.334-5.229 5.212c0 2.88 2.341 5.213 5.229 5.213z" fill="#97C3F9)"/></mask><g mask="url(#di)"><path d="M96.072 36.596c2.887 0 5.228-2.334 5.228-5.213 0-2.878-2.34-5.212-5.228-5.212s-5.229 2.334-5.229 5.212c0 2.88 2.341 5.213 5.229 5.213z" fill="#97C3F9)"/></g><mask id="dj" maskUnits="userSpaceOnUse" x="121" y="26" width="11" height="11"><path d="M126.353 36.596c2.887 0 5.228-2.334 5.228-5.213 0-2.878-2.341-5.212-5.228-5.212-2.888 0-5.229 2.334-5.229 5.212 0 2.88 2.341 5.213 5.229 5.213z" fill="#97C3F9)"/></mask><g mask="url(#dj)"><path d="M126.353 36.596c2.887 0 5.228-2.334 5.228-5.213 0-2.878-2.341-5.212-5.228-5.212-2.888 0-5.229 2.334-5.229 5.212 0 2.88 2.341 5.213 5.229 5.213z" fill="#97C3F9)"/></g><mask id="dk" maskUnits="userSpaceOnUse" x="0" y="52" width="11" height="11"><path d="M5.228 62.712c2.888 0 5.229-2.333 5.229-5.212 0-2.879-2.341-5.212-5.229-5.212C2.341 52.288 0 54.62 0 57.5c0 2.879 2.34 5.212 5.228 5.212z" fill="#97C3F9)"/></mask><g mask="url(#dk)"><path d="M5.228 62.712c2.888 0 5.229-2.333 5.229-5.212 0-2.879-2.341-5.212-5.229-5.212C2.341 52.288 0 54.62 0 57.5c0 2.879 2.34 5.212 5.228 5.212z" fill="#97C3F9)"/></g><mask id="dl" maskUnits="userSpaceOnUse" x="30" y="52" width="11" height="11"><path d="M35.51 62.712c2.887 0 5.228-2.333 5.228-5.212 0-2.879-2.341-5.212-5.228-5.212-2.888 0-5.229 2.333-5.229 5.212 0 2.879 2.34 5.212 5.229 5.212z" fill="#97C3F9)"/></mask><g mask="url(#dl)"><path d="M35.51 62.712c2.887 0 5.228-2.333 5.228-5.212 0-2.879-2.341-5.212-5.228-5.212-2.888 0-5.229 2.333-5.229 5.212 0 2.879 2.34 5.212 5.229 5.212z" fill="#97C3F9)"/></g><mask id="dm" maskUnits="userSpaceOnUse" x="60" y="52" width="12" height="11"><path d="M65.79 62.712c2.888 0 5.229-2.333 5.229-5.212 0-2.879-2.34-5.212-5.229-5.212-2.887 0-5.228 2.333-5.228 5.212 0 2.879 2.341 5.212 5.228 5.212z" fill="#97C3F9)"/></mask><g mask="url(#dm)"><path d="M65.79 62.712c2.888 0 5.229-2.333 5.229-5.212 0-2.879-2.34-5.212-5.229-5.212-2.887 0-5.228 2.333-5.228 5.212 0 2.879 2.341 5.212 5.228 5.212z" fill="#97C3F9)"/></g><mask id="dn" maskUnits="userSpaceOnUse" x="90" y="52" width="12" height="11"><path d="M96.072 62.712c2.887 0 5.228-2.333 5.228-5.212 0-2.879-2.34-5.212-5.228-5.212s-5.229 2.333-5.229 5.212c0 2.879 2.341 5.212 5.229 5.212z" fill="#97C3F9)"/></mask><g mask="url(#dn)"><path d="M96.072 62.712c2.887 0 5.228-2.333 5.228-5.212 0-2.879-2.34-5.212-5.228-5.212s-5.229 2.333-5.229 5.212c0 2.879 2.341 5.212 5.229 5.212z" fill="#97C3F9)"/></g><mask id="do" maskUnits="userSpaceOnUse" x="121" y="52" width="11" height="11"><path d="M126.353 62.712c2.887 0 5.228-2.333 5.228-5.212 0-2.879-2.341-5.212-5.228-5.212-2.888 0-5.229 2.333-5.229 5.212 0 2.879 2.341 5.212 5.229 5.212z" fill="#97C3F9)"/></mask><g mask="url(#do)"><path d="M126.353 62.712c2.887 0 5.228-2.333 5.228-5.212 0-2.879-2.341-5.212-5.228-5.212-2.888 0-5.229 2.333-5.229 5.212 0 2.879 2.341 5.212 5.229 5.212z" fill="#97C3F9)"/></g><mask id="dp" maskUnits="userSpaceOnUse" x="0" y="78" width="11" height="11"><path d="M5.228 88.883c2.888 0 5.229-2.333 5.229-5.212 0-2.879-2.341-5.213-5.229-5.213C2.341 78.458 0 80.792 0 83.671s2.34 5.212 5.228 5.212z" fill="#97C3F9)"/></mask><g mask="url(#dp)"><path d="M5.228 88.883c2.888 0 5.229-2.333 5.229-5.212 0-2.879-2.341-5.213-5.229-5.213C2.341 78.458 0 80.792 0 83.671s2.34 5.212 5.228 5.212z" fill="#97C3F9)"/></g><mask id="dq" maskUnits="userSpaceOnUse" x="30" y="78" width="11" height="11"><path d="M35.51 88.883c2.887 0 5.228-2.333 5.228-5.212 0-2.879-2.341-5.213-5.228-5.213-2.888 0-5.229 2.334-5.229 5.213s2.34 5.212 5.229 5.212z" fill="#97C3F9)"/></mask><g mask="url(#dq)"><path d="M35.51 88.883c2.887 0 5.228-2.333 5.228-5.212 0-2.879-2.341-5.213-5.228-5.213-2.888 0-5.229 2.334-5.229 5.213s2.34 5.212 5.229 5.212z" fill="#97C3F9)"/></g><mask id="dr" maskUnits="userSpaceOnUse" x="60" y="78" width="12" height="11"><path d="M65.79 88.883c2.888 0 5.229-2.333 5.229-5.212 0-2.879-2.34-5.213-5.229-5.213-2.887 0-5.228 2.334-5.228 5.213s2.341 5.212 5.228 5.212z" fill="#97C3F9)"/></mask><g mask="url(#dr)"><path d="M65.79 88.883c2.888 0 5.229-2.333 5.229-5.212 0-2.879-2.34-5.213-5.229-5.213-2.887 0-5.228 2.334-5.228 5.213s2.341 5.212 5.228 5.212z" fill="#97C3F9)"/></g><mask id="ds" maskUnits="userSpaceOnUse" x="90" y="78" width="12" height="11"><path d="M96.072 88.883c2.887 0 5.228-2.333 5.228-5.212 0-2.879-2.34-5.213-5.228-5.213s-5.229 2.334-5.229 5.213 2.341 5.212 5.229 5.212z" fill="#97C3F9)"/></mask><g mask="url(#ds)"><path d="M96.072 88.883c2.887 0 5.228-2.333 5.228-5.212 0-2.879-2.34-5.213-5.228-5.213s-5.229 2.334-5.229 5.213 2.341 5.212 5.229 5.212z" fill="#97C3F9)"/></g><mask id="dt" maskUnits="userSpaceOnUse" x="121" y="78" width="11" height="11"><path d="M126.353 88.883c2.887 0 5.228-2.333 5.228-5.212 0-2.879-2.341-5.213-5.228-5.213-2.888 0-5.229 2.334-5.229 5.213s2.341 5.212 5.229 5.212z" fill="#97C3F9)"/></mask><g mask="url(#dt)"><path d="M126.353 88.883c2.887 0 5.228-2.333 5.228-5.212 0-2.879-2.341-5.213-5.228-5.213-2.888 0-5.229 2.334-5.229 5.213s2.341 5.212 5.229 5.212z" fill="#97C3F9)"/></g><mask id="du" maskUnits="userSpaceOnUse" x="0" y="104" width="11" height="11"><path d="M5.228 115c2.888 0 5.229-2.334 5.229-5.212 0-2.879-2.341-5.213-5.229-5.213-2.887 0-5.228 2.334-5.228 5.213C0 112.666 2.34 115 5.228 115z" fill="#97C3F9)"/></mask><g mask="url(#du)"><path d="M5.228 115c2.888 0 5.229-2.334 5.229-5.212 0-2.879-2.341-5.213-5.229-5.213-2.887 0-5.228 2.334-5.228 5.213C0 112.666 2.34 115 5.228 115z" fill="#97C3F9)"/></g><mask id="dv" maskUnits="userSpaceOnUse" x="30" y="104" width="11" height="11"><path d="M35.51 115c2.887 0 5.228-2.334 5.228-5.212 0-2.879-2.341-5.213-5.228-5.213-2.888 0-5.229 2.334-5.229 5.213 0 2.878 2.34 5.212 5.229 5.212z" fill="#97C3F9)"/></mask><g mask="url(#dv)"><path d="M35.51 115c2.887 0 5.228-2.334 5.228-5.212 0-2.879-2.341-5.213-5.228-5.213-2.888 0-5.229 2.334-5.229 5.213 0 2.878 2.34 5.212 5.229 5.212z" fill="#97C3F9)"/></g><mask id="dw" maskUnits="userSpaceOnUse" x="60" y="104" width="12" height="11"><path d="M65.79 115c2.888 0 5.229-2.334 5.229-5.212 0-2.879-2.34-5.213-5.229-5.213-2.887 0-5.228 2.334-5.228 5.213 0 2.878 2.341 5.212 5.228 5.212z" fill="#97C3F9)"/></mask><g mask="url(#dw)"><path d="M65.79 115c2.888 0 5.229-2.334 5.229-5.212 0-2.879-2.34-5.213-5.229-5.213-2.887 0-5.228 2.334-5.228 5.213 0 2.878 2.341 5.212 5.228 5.212z" fill="#97C3F9)"/></g><mask id="dx" maskUnits="userSpaceOnUse" x="90" y="104" width="12" height="11"><path d="M96.072 115c2.887 0 5.228-2.334 5.228-5.212 0-2.879-2.34-5.213-5.228-5.213s-5.229 2.334-5.229 5.213c0 2.878 2.341 5.212 5.229 5.212z" fill="#97C3F9)"/></mask><g mask="url(#dx)"><path d="M96.072 115c2.887 0 5.228-2.334 5.228-5.212 0-2.879-2.34-5.213-5.228-5.213s-5.229 2.334-5.229 5.213c0 2.878 2.341 5.212 5.229 5.212z" fill="#97C3F9)"/></g><mask id="dy" maskUnits="userSpaceOnUse" x="121" y="104" width="11" height="11"><path d="M126.353 115c2.887 0 5.228-2.334 5.228-5.212 0-2.879-2.341-5.213-5.228-5.213-2.888 0-5.229 2.334-5.229 5.213 0 2.878 2.341 5.212 5.229 5.212z" fill="#97C3F9)"/></mask><g mask="url(#dy)"><path d="M126.353 115c2.887 0 5.228-2.334 5.228-5.212 0-2.879-2.341-5.213-5.228-5.213-2.888 0-5.229 2.334-5.229 5.213 0 2.878 2.341 5.212 5.229 5.212z" fill="#97C3F9)"/></g></g><defs><linearGradient id="dpaint0_linear" x1="54.996" y1="131.134" x2="-16.406" y2="-50.67" gradientUnits="userSpaceOnUse"><stop/><stop offset="1" stop-color="#fff"/></linearGradient><linearGradient id="dpaint1_linear" x1="54.996" y1="131.134" x2="-16.406" y2="-50.67" gradientUnits="userSpaceOnUse"><stop stop-color="#97C3F9"/><stop offset="1" stop-color="#93C1F9"/></linearGradient><linearGradient id="dpaint2_linear" x1="81.201" y1="120.843" x2="9.799" y2="-60.961" gradientUnits="userSpaceOnUse"><stop/><stop offset="1" stop-color="#fff"/></linearGradient><linearGradient id="dpaint3_linear" x1="81.201" y1="120.843" x2="9.799" y2="-60.961" gradientUnits="userSpaceOnUse"><stop stop-color="#97C3F9"/><stop offset="1" stop-color="#93C1F9"/></linearGradient><linearGradient id="dpaint4_linear" x1="107.405" y1="110.551" x2="36.003" y2="-71.253" gradientUnits="userSpaceOnUse"><stop/><stop offset="1" stop-color="#fff"/></linearGradient><linearGradient id="dpaint5_linear" x1="107.405" y1="110.551" x2="36.003" y2="-71.253" gradientUnits="userSpaceOnUse"><stop stop-color="#97C3F9"/><stop offset="1" stop-color="#93C1F9"/></linearGradient><linearGradient id="dpaint6_linear" x1="133.609" y1="100.259" x2="62.208" y2="-81.544" gradientUnits="userSpaceOnUse"><stop/><stop offset="1" stop-color="#fff"/></linearGradient><linearGradient id="dpaint7_linear" x1="133.609" y1="100.259" x2="62.208" y2="-81.544" gradientUnits="userSpaceOnUse"><stop stop-color="#97C3F9"/><stop offset="1" stop-color="#93C1F9"/></linearGradient><linearGradient id="dpaint8_linear" x1="159.813" y1="89.968" x2="88.412" y2="-91.836" gradientUnits="userSpaceOnUse"><stop/><stop offset="1" stop-color="#fff"/></linearGradient><linearGradient id="dpaint9_linear" x1="159.813" y1="89.968" x2="88.412" y2="-91.836" gradientUnits="userSpaceOnUse"><stop stop-color="#97C3F9"/><stop offset="1" stop-color="#93C1F9"/></linearGradient><linearGradient id="dpaint10_linear" x1="46.054" y1="134.645" x2="-25.347" y2="-47.157" gradientUnits="userSpaceOnUse"><stop/><stop offset="1" stop-color="#fff"/></linearGradient><linearGradient id="dpaint11_linear" x1="46.054" y1="134.645" x2="-25.347" y2="-47.157" gradientUnits="userSpaceOnUse"><stop stop-color="#97C3F9"/><stop offset="1" stop-color="#93C1F9"/></linearGradient><linearGradient id="dpaint12_linear" x1="72.258" y1="124.354" x2=".858" y2="-57.449" gradientUnits="userSpaceOnUse"><stop/><stop offset="1" stop-color="#fff"/></linearGradient><linearGradient id="dpaint13_linear" x1="72.258" y1="124.354" x2=".858" y2="-57.449" gradientUnits="userSpaceOnUse"><stop stop-color="#97C3F9"/><stop offset="1" stop-color="#93C1F9"/></linearGradient><linearGradient id="dpaint14_linear" x1="98.462" y1="114.062" x2="27.062" y2="-67.74" gradientUnits="userSpaceOnUse"><stop/><stop offset="1" stop-color="#fff"/></linearGradient><linearGradient id="dpaint15_linear" x1="98.462" y1="114.062" x2="27.062" y2="-67.74" gradientUnits="userSpaceOnUse"><stop stop-color="#97C3F9"/><stop offset="1" stop-color="#93C1F9"/></linearGradient><linearGradient id="dpaint16_linear" x1="124.667" y1="103.771" x2="53.266" y2="-78.032" gradientUnits="userSpaceOnUse"><stop/><stop offset="1" stop-color="#fff"/></linearGradient><linearGradient id="dpaint17_linear" x1="124.667" y1="103.771" x2="53.266" y2="-78.032" gradientUnits="userSpaceOnUse"><stop stop-color="#97C3F9"/><stop offset="1" stop-color="#93C1F9"/></linearGradient><linearGradient id="dpaint18_linear" x1="150.871" y1="93.479" x2="79.471" y2="-88.323" gradientUnits="userSpaceOnUse"><stop/><stop offset="1" stop-color="#fff"/></linearGradient><linearGradient id="dpaint19_linear" x1="150.871" y1="93.479" x2="79.471" y2="-88.323" gradientUnits="userSpaceOnUse"><stop stop-color="#97C3F9"/><stop offset="1" stop-color="#93C1F9"/></linearGradient><linearGradient id="dpaint20_linear" x1="37.111" y1="138.158" x2="-34.29" y2="-43.646" gradientUnits="userSpaceOnUse"><stop/><stop offset="1" stop-color="#fff"/></linearGradient><linearGradient id="dpaint21_linear" x1="37.111" y1="138.158" x2="-34.29" y2="-43.646" gradientUnits="userSpaceOnUse"><stop stop-color="#97C3F9"/><stop offset="1" stop-color="#93C1F9"/></linearGradient><linearGradient id="dpaint22_linear" x1="63.316" y1="127.866" x2="-8.086" y2="-53.937" gradientUnits="userSpaceOnUse"><stop/><stop offset="1" stop-color="#fff"/></linearGradient><linearGradient id="dpaint23_linear" x1="63.316" y1="127.866" x2="-8.086" y2="-53.937" gradientUnits="userSpaceOnUse"><stop stop-color="#97C3F9"/><stop offset="1" stop-color="#93C1F9"/></linearGradient><linearGradient id="dpaint24_linear" x1="89.52" y1="117.575" x2="18.119" y2="-64.229" gradientUnits="userSpaceOnUse"><stop/><stop offset="1" stop-color="#fff"/></linearGradient><linearGradient id="dpaint25_linear" x1="89.52" y1="117.575" x2="18.119" y2="-64.229" gradientUnits="userSpaceOnUse"><stop stop-color="#97C3F9"/><stop offset="1" stop-color="#93C1F9"/></linearGradient><linearGradient id="dpaint26_linear" x1="115.724" y1="107.283" x2="44.323" y2="-74.52" gradientUnits="userSpaceOnUse"><stop/><stop offset="1" stop-color="#fff"/></linearGradient><linearGradient id="dpaint27_linear" x1="115.724" y1="107.283" x2="44.323" y2="-74.52" gradientUnits="userSpaceOnUse"><stop stop-color="#97C3F9"/><stop offset="1" stop-color="#93C1F9"/></linearGradient><linearGradient id="dpaint28_linear" x1="141.929" y1="96.992" x2="70.527" y2="-84.812" gradientUnits="userSpaceOnUse"><stop/><stop offset="1" stop-color="#fff"/></linearGradient><linearGradient id="dpaint29_linear" x1="141.929" y1="96.992" x2="70.527" y2="-84.812" gradientUnits="userSpaceOnUse"><stop stop-color="#97C3F9"/><stop offset="1" stop-color="#93C1F9"/></linearGradient><linearGradient id="dpaint30_linear" x1="28.169" y1="141.67" x2="-43.233" y2="-40.134" gradientUnits="userSpaceOnUse"><stop/><stop offset="1" stop-color="#fff"/></linearGradient><linearGradient id="dpaint31_linear" x1="28.169" y1="141.67" x2="-43.233" y2="-40.134" gradientUnits="userSpaceOnUse"><stop stop-color="#97C3F9"/><stop offset="1" stop-color="#93C1F9"/></linearGradient><linearGradient id="dpaint32_linear" x1="54.373" y1="131.378" x2="-17.028" y2="-50.425" gradientUnits="userSpaceOnUse"><stop/><stop offset="1" stop-color="#fff"/></linearGradient><linearGradient id="dpaint33_linear" x1="54.373" y1="131.378" x2="-17.028" y2="-50.425" gradientUnits="userSpaceOnUse"><stop stop-color="#97C3F9"/><stop offset="1" stop-color="#93C1F9"/></linearGradient><linearGradient id="dpaint34_linear" x1="80.578" y1="121.087" x2="9.176" y2="-60.717" gradientUnits="userSpaceOnUse"><stop/><stop offset="1" stop-color="#fff"/></linearGradient><linearGradient id="dpaint35_linear" x1="80.578" y1="121.087" x2="9.176" y2="-60.717" gradientUnits="userSpaceOnUse"><stop stop-color="#97C3F9"/><stop offset="1" stop-color="#93C1F9"/></linearGradient><linearGradient id="dpaint36_linear" x1="106.782" y1="110.795" x2="35.38" y2="-71.008" gradientUnits="userSpaceOnUse"><stop/><stop offset="1" stop-color="#fff"/></linearGradient><linearGradient id="dpaint37_linear" x1="106.782" y1="110.795" x2="35.38" y2="-71.008" gradientUnits="userSpaceOnUse"><stop stop-color="#97C3F9"/><stop offset="1" stop-color="#93C1F9"/></linearGradient><linearGradient id="dpaint38_linear" x1="132.986" y1="100.504" x2="61.585" y2="-81.3" gradientUnits="userSpaceOnUse"><stop/><stop offset="1" stop-color="#fff"/></linearGradient><linearGradient id="dpaint39_linear" x1="132.986" y1="100.504" x2="61.585" y2="-81.3" gradientUnits="userSpaceOnUse"><stop stop-color="#97C3F9"/><stop offset="1" stop-color="#93C1F9"/></linearGradient><linearGradient id="dpaint40_linear" x1="19.227" y1="145.182" x2="-52.175" y2="-36.622" gradientUnits="userSpaceOnUse"><stop/><stop offset="1" stop-color="#fff"/></linearGradient><linearGradient id="dpaint41_linear" x1="19.227" y1="145.182" x2="-52.175" y2="-36.622" gradientUnits="userSpaceOnUse"><stop stop-color="#97C3F9"/><stop offset="1" stop-color="#93C1F9"/></linearGradient><linearGradient id="dpaint42_linear" x1="45.431" y1="134.89" x2="-25.971" y2="-46.913" gradientUnits="userSpaceOnUse"><stop/><stop offset="1" stop-color="#fff"/></linearGradient><linearGradient id="dpaint43_linear" x1="45.431" y1="134.89" x2="-25.971" y2="-46.913" gradientUnits="userSpaceOnUse"><stop stop-color="#97C3F9"/><stop offset="1" stop-color="#93C1F9"/></linearGradient><linearGradient id="dpaint44_linear" x1="71.635" y1="124.599" x2=".234" y2="-57.205" gradientUnits="userSpaceOnUse"><stop/><stop offset="1" stop-color="#fff"/></linearGradient><linearGradient id="dpaint45_linear" x1="71.635" y1="124.599" x2=".234" y2="-57.205" gradientUnits="userSpaceOnUse"><stop stop-color="#97C3F9"/><stop offset="1" stop-color="#93C1F9"/></linearGradient><linearGradient id="dpaint46_linear" x1="97.84" y1="114.307" x2="26.438" y2="-67.496" gradientUnits="userSpaceOnUse"><stop/><stop offset="1" stop-color="#fff"/></linearGradient><linearGradient id="dpaint47_linear" x1="97.84" y1="114.307" x2="26.438" y2="-67.496" gradientUnits="userSpaceOnUse"><stop stop-color="#97C3F9"/><stop offset="1" stop-color="#93C1F9"/></linearGradient><linearGradient id="dpaint48_linear" x1="124.044" y1="104.016" x2="52.642" y2="-77.788" gradientUnits="userSpaceOnUse"><stop/><stop offset="1" stop-color="#fff"/></linearGradient><linearGradient id="dpaint49_linear" x1="124.044" y1="104.016" x2="52.642" y2="-77.788" gradientUnits="userSpaceOnUse"><stop stop-color="#97C3F9"/><stop offset="1" stop-color="#93C1F9"/></linearGradient></defs></svg><svg fill="none" viewBox="0 0 41 41" id="footer__icon" xmlns="http://www.w3.org/2000/svg"><circle cx="20.5" cy="20.5" r="20.5" fill="#fff"/><path d="M19.344 15.244h-6.032v-2.756h15.47v2.756h-6.058V31h-3.38V15.244z" fill="#5B9BF3"/></svg><svg fill="none" viewBox="0 0 41 41" id="header__icon" xmlns="http://www.w3.org/2000/svg"><circle cx="20.5" cy="20.5" r="20.5" fill="#458FF6"/><path d="M19.344 15.244h-6.032v-2.756h15.47v2.756h-6.058V31h-3.38V15.244z" fill="#fff"/></svg><svg fill="none" viewBox="0 0 92 90" id="services__card_1" xmlns="http://www.w3.org/2000/svg"><g clip-path="url(#gclip0)"><path d="M56.216 43.315l-9.078 8.665L8.803 88.566a5.176 5.176 0 01-3.588 1.444 5.176 5.176 0 01-3.853-1.71c-2.023-2.233-1.758-5.726.57-7.63l45.206-36.843 4.98-4.056 4.098 3.544z" fill="#67C3F3"/><path d="M46.741 52.42l-8.935 8.522-.824-8.757 4.89-3.984 4.87 4.22z" fill="#3A81D6" fill-opacity=".8"/><path d="M91.978 29.908c0 16.52-13.296 29.918-29.683 29.918-10.329 0-19.427-5.316-24.743-13.387a29.93 29.93 0 01-4.94-16.531C32.611 13.387 45.907 0 62.294 0c7.4 0 14.16 2.724 19.355 7.231a29.95 29.95 0 0110.328 22.677z" fill="#67C3F3"/><path d="M62.295 53.21c12.772 0 23.126-10.433 23.126-23.302 0-12.87-10.354-23.302-23.126-23.302-12.773 0-23.127 10.433-23.127 23.302s10.354 23.301 23.127 23.301z" fill="#fff"/><path opacity=".06" d="M91.978 29.908c0 16.52-13.296 29.918-29.683 29.918-10.329 0-19.427-5.316-24.743-13.387C71.027 43.694 79.85 15.118 81.66 7.231a29.976 29.976 0 0110.318 22.677z" fill="#1A6FB5" fill-opacity=".5"/><path d="M62.295 29.959c2.683 0 4.859-2.192 4.859-4.896 0-2.704-2.176-4.896-4.86-4.896-2.683 0-4.859 2.192-4.859 4.896 0 2.704 2.166 4.896 4.86 4.896zm0 2.448c-3.243 0-9.719 1.639-9.719 4.896v1.229c0 .676.55 1.229 1.22 1.229h17.017c.671 0 1.22-.553 1.22-1.23v-1.228c-.02-3.247-6.496-4.896-9.738-4.896z" fill="#67C3F3"/></g><defs><linearGradient id="gpaint0_linear" x1="5.675" y1="84.326" x2="53.924" y2="40.792" gradientUnits="userSpaceOnUse"><stop stop-color="#67C3F3"/><stop offset="1" stop-color="#5A98F2"/></linearGradient><linearGradient id="gpaint1_linear" x1="50.017" y1="2.113" x2="72.782" y2="52.905" gradientUnits="userSpaceOnUse"><stop stop-color="#67C3F3"/><stop offset="1" stop-color="#5A98F2"/></linearGradient><linearGradient id="gpaint2_linear" x1="55.269" y1="28.395" x2="72.92" y2="36.939" gradientUnits="userSpaceOnUse"><stop stop-color="#B0F4FF"/><stop offset=".071" stop-color="#A6F1FF"/><stop offset=".294" stop-color="#8BE8FD"/><stop offset=".521" stop-color="#78E1FD"/><stop offset=".754" stop-color="#6DDDFC"/><stop offset="1" stop-color="#69DCFC"/></linearGradient><clipPath id="gclip0"><path fill="#fff" d="M0 0h91.978v90H0z"/></clipPath></defs></svg><svg fill="none" viewBox="0 0 62 85" id="services__card_2" xmlns="http://www.w3.org/2000/svg"><g clip-path="url(#hclip0)"><path d="M61.857 26.48l-.191 39.801-.032 7.699c-.032 6.117-5.846 11.052-13.001 11.02l-35.744-.16C5.749 84.792-.031 79.81 0 73.676l.224-47.499c.016-4.951 3.849-9.136 9.087-10.525l.016-2.555v-1.31l43.554.208-.016 3.865c5.223 1.453 9.008 5.654 8.992 10.62z" fill="#67C3F3"/><path d="M56.124 1.773v.351l-.032 4.153-.032 4.073v.495c0 .766-.64 1.39-1.406 1.39h-.335l-2.108-.017-2.316-.016-2.108-.016-2.316-.016-2.14-.032-2.316-.016-2.109-.016-2.331-.016-2.125-.016-2.316-.016-2.108-.031-2.316-.016-2.108-.016-2.332-.016-2.124-.016-2.3-.016-2.108-.016-2.316-.016-2.124-.016-2.316-.016-2.124-.016h-.335c-.767 0-1.39-.64-1.39-1.406v-.367l.064-8.21V1.39C6.197.623 6.836 0 7.618 0h.336l4.44.032 4.44.032 2.124.016 2.316.016 2.108.016 4.424.048 2.316.016 2.108.016 2.316.016 2.108.016L38.97.24l2.109.016 2.315.016 2.109.015L47.85.32l2.109.016 2.316.016 2.124.016h.335c.783.016 1.39.64 1.39 1.406z" fill="#67C3F3"/><path d="M56.124 2.14l-.032 4.137-.032 4.073-1.9-.016-2.524-.016-2.316-.016h-2.54l-2.316-.016-2.523-.016-2.316-.016h-2.54l-2.315-.016-2.54-.016-2.3-.016h-2.539l-2.316-.016-2.54-.016-2.315-.016h-2.524l-2.316-.016-2.539-.016-2.316-.016H8.002l-1.869-.016.064-8.21 4.44.017 4.84.032 2.315.016 2.54.015h2.316l4.839.032 2.54.016h2.315l2.54.016 2.3.016 2.539.016h2.316l2.54.016 2.3.016 2.539.016h2.316l2.539.016 1.853.016z" fill="#67C3F3"/><path d="M61.81 34.884L.177 34.593.047 61.92l61.634.291.13-27.327z" fill="#F7F9FC"/><path d="M61.822 34.884L.188 34.593l-.024 4.919 61.634.291.023-4.919z" fill="#FBFCF7"/><path d="M24.213 45.58l-3.977-.016.016-3.992-5.478-.017-.016 3.977-3.977-.015-.032 5.462 3.977.016-.016 3.992 5.478.017.016-3.977 3.977.016.032-5.463zM51.236 46.906l-19.708-.096a.961.961 0 01-.959-.958v-.447c0-.527.432-.959.959-.959l19.708.096c.527 0 .959.431.959.959v.447a.961.961 0 01-.959.958z" fill="#67C3F3"/><path opacity=".5" d="M51.22 52.767l-19.708-.095a.961.961 0 01-.959-.959v-.447c0-.527.432-.958.959-.958l19.708.096c.528 0 .959.431.959.958v.447a.961.961 0 01-.959.959z" fill="#67C3F3"/><path opacity=".08" d="M6.133 1.773v.351l.032 4.153.032 4.057v.495c0 .766.639 1.39 1.405 1.39h.336l2.124-.017 2.316-.016 2.108-.016 2.316-.016 2.108-.016 2.316-.016 2.108-.016 2.316-.016 2.124-.016 2.316-.015 2.108-.016 2.316-.016 2.108-.016 2.316-.016 2.125-.016 2.315-.016 2.109-.016 2.316-.016 2.108-.016 2.316-.016 2.124-.016h.335c.767 0 1.39-.64 1.39-1.406v-.367C31.368 11.18 7.523.367 7.523.367a1.415 1.415 0 00-1.39 1.406z" fill="#1A6FB5"/></g><defs><linearGradient id="hpaint0_linear" x1="0" y1="11.333" x2="57.139" y2="90.194" gradientUnits="userSpaceOnUse"><stop stop-color="#6CBCFC"/><stop offset="1" stop-color="#458DFC"/></linearGradient><linearGradient id="hpaint1_linear" x1="-629.93" y1="-39.931" x2="-27.604" y2="2.022" gradientUnits="userSpaceOnUse"><stop stop-color="#B0F4FF"/><stop offset=".053" stop-color="#A9F2FF"/><stop offset=".288" stop-color="#8DE8FE"/><stop offset=".525" stop-color="#79E1FD"/><stop offset=".762" stop-color="#6DDDFC"/><stop offset="1" stop-color="#69DCFC"/></linearGradient><linearGradient id="hpaint2_linear" x1="6.14" y1="6.113" x2="56.126" y2="6.113" gradientUnits="userSpaceOnUse"><stop stop-color="#B0F4FF"/><stop offset=".053" stop-color="#A9F2FF"/><stop offset=".288" stop-color="#8DE8FE"/><stop offset=".525" stop-color="#79E1FD"/><stop offset=".762" stop-color="#6DDDFC"/><stop offset="1" stop-color="#69DCFC"/></linearGradient><linearGradient id="hpaint3_linear" x1="21.978" y1="43.095" x2="12.598" y2="53.912" gradientUnits="userSpaceOnUse"><stop stop-color="#6CBCFC"/><stop offset="1" stop-color="#458DFC"/></linearGradient><linearGradient id="hpaint4_linear" x1="52.385" y1="45.671" x2="28.887" y2="45.671" gradientUnits="userSpaceOnUse"><stop stop-color="#6CBCFC"/><stop offset="1" stop-color="#458DFC"/></linearGradient><linearGradient id="hpaint5_linear" x1="30.552" y1="51.532" x2="52.179" y2="51.532" gradientUnits="userSpaceOnUse"><stop stop-color="#6CBCFC"/><stop offset="1" stop-color="#458DFC"/></linearGradient><clipPath id="hclip0"><path fill="#fff" d="M0 0h61.857v85H0z"/></clipPath></defs></svg><svg fill="none" viewBox="0 0 68 95" id="services__card_3" xmlns="http://www.w3.org/2000/svg"><g clip-path="url(#iclip0)"><path d="M64.97 0H2.33C1.04 0 0 1.028 0 2.3v90.407c0 1.272 1.041 2.3 2.33 2.3h62.64c1.288 0 2.33-1.028 2.33-2.3V2.3A2.323 2.323 0 0064.97 0z" fill="#67C3F3"/><path d="M60.858 4.098H6.434c-1.25 0-2.268 1.005-2.268 2.247v74.747c0 1.242 1.018 2.24 2.268 2.24h54.424c1.257 0 2.268-1.006 2.268-2.24V6.345a2.254 2.254 0 00-2.268-2.247z" fill="#fff"/><path d="M44.774 39.636H22.526a1.832 1.832 0 01-1.844-1.82V15.842c0-1.005.825-1.82 1.844-1.82h22.248c1.018 0 1.843.815 1.843 1.82v21.966a1.838 1.838 0 01-1.843 1.828z" fill="#67C3F3"/><path d="M33.65 92.547c1.891 0 3.425-1.513 3.425-3.381 0-1.868-1.534-3.382-3.425-3.382-1.892 0-3.425 1.514-3.425 3.382s1.533 3.382 3.425 3.382z" fill="#fff"/><path d="M53.036 51.015h-38.78c-.98 0-1.782-.792-1.782-1.76 0-.967.802-1.759 1.782-1.759h38.772c.98 0 1.782.792 1.782 1.76a1.77 1.77 0 01-1.774 1.759z" fill="#67C3F3"/><path opacity=".6" d="M46.47 60.764H13.609a1.12 1.12 0 01-1.126-1.112v-.122c0-.617.509-1.112 1.126-1.112h32.863a1.12 1.12 0 011.126 1.112v.122c.008.61-.501 1.112-1.126 1.112z" fill="#67C3F3"/><path opacity=".3" d="M40.215 66.956H13.5a1.024 1.024 0 01-1.026-1.013v-.335c0-.556.463-1.013 1.026-1.013h26.707c.563 0 1.026.457 1.026 1.013v.335c0 .556-.463 1.013-1.018 1.013z" fill="#67C3F3"/><path opacity=".6" d="M43.578 72.691H13.562c-.594 0-1.08-.48-1.08-1.066v-.213c0-.587.486-1.066 1.08-1.066h30.016c.594 0 1.08.48 1.08 1.066v.213c0 .579-.486 1.066-1.08 1.066z" fill="#67C3F3"/><path d="M33.717 26.12a4.034 4.034 0 004.033-4.035 4.034 4.034 0 10-8.067 0 4.029 4.029 0 004.034 4.036zm0 2.018c-2.692 0-8.067 1.351-8.067 4.036v1.013c0 .557.456 1.013 1.013 1.013h14.125c.556 0 1.012-.456 1.012-1.013v-1.013c-.017-2.676-5.392-4.035-8.083-4.035z" fill="#fff"/></g><defs><linearGradient id="ipaint0_linear" x1="4.077" y1="45.03" x2="67.344" y2="50.454" gradientUnits="userSpaceOnUse"><stop stop-color="#6CBCFC"/><stop offset="1" stop-color="#458DFC"/></linearGradient><linearGradient id="ipaint1_linear" x1="18.671" y1="19.292" x2="48.465" y2="34.669" gradientUnits="userSpaceOnUse"><stop stop-color="#B0F4FF"/><stop offset=".086" stop-color="#A3F0FE"/><stop offset=".297" stop-color="#8AE7FD"/><stop offset=".516" stop-color="#77E1FD"/><stop offset=".745" stop-color="#6DDDFC"/><stop offset="1" stop-color="#69DCFC"/></linearGradient><linearGradient id="ipaint2_linear" x1="54.814" y1="49.257" x2="12.481" y2="49.257" gradientUnits="userSpaceOnUse"><stop stop-color="#6CBCFC"/><stop offset="1" stop-color="#458DFC"/></linearGradient><linearGradient id="ipaint3_linear" x1="47.603" y1="59.588" x2="12.481" y2="59.588" gradientUnits="userSpaceOnUse"><stop stop-color="#6CBCFC"/><stop offset="1" stop-color="#458DFC"/></linearGradient><linearGradient id="ipaint4_linear" x1="41.234" y1="65.78" x2="12.481" y2="65.78" gradientUnits="userSpaceOnUse"><stop stop-color="#6CBCFC"/><stop offset="1" stop-color="#458DFC"/></linearGradient><linearGradient id="ipaint5_linear" x1="44.657" y1="71.512" x2="12.481" y2="71.512" gradientUnits="userSpaceOnUse"><stop stop-color="#6CBCFC"/><stop offset="1" stop-color="#458DFC"/></linearGradient><clipPath id="iclip0"><path fill="#fff" d="M0 0h67.292v95H0z"/></clipPath></defs></svg><svg fill="none" viewBox="0 0 68 95" id="services__card_4" xmlns="http://www.w3.org/2000/svg"><g clip-path="url(#jclip0)"><path d="M67.71 90.448a4.49 4.49 0 01-4.485 4.494l-58.005.066a4.495 4.495 0 01-4.253-3.034 4.39 4.39 0 01-.24-1.443L.634 6.881a4.49 4.49 0 014.486-4.493l53.262-.058 4.742-.008a4.49 4.49 0 014.494 4.485l.091 83.641z" fill="#67C3F3"/><path d="M61.7 89.967l-54.963.058a2.41 2.41 0 01-2.412-2.412L4.242 9.767a2.41 2.41 0 012.413-2.413l54.953-.058a2.41 2.41 0 012.413 2.413l.083 77.846a2.403 2.403 0 01-2.404 2.412z" fill="#fff"/><path d="M53.98 13.714l-40.087.05a2.413 2.413 0 01-2.413-2.405l-.008-6.683a2.413 2.413 0 012.404-2.413l40.096-.041a2.413 2.413 0 012.413 2.404l.008 6.683a2.419 2.419 0 01-2.413 2.405zM13.876 3.49c-.647 0-1.177.53-1.177 1.177l.008 6.683c0 .646.53 1.177 1.177 1.177l40.096-.042c.647 0 1.178-.53 1.178-1.177l-.009-6.683c0-.646-.53-1.177-1.177-1.177l-40.096.042z" fill="#67C3F3"/><path d="M52.844 5.116l-37.434.041a.743.743 0 01-.746-.746V.788c0-.415.331-.747.746-.747L52.836 0c.415 0 .746.332.746.746V4.37a.73.73 0 01-.738.747z" fill="#67C3F3"/><path d="M15.443 5.157l37.368-.041c.431 0 .78-.349.78-.78V2.562l-38.935.041v1.775c0 .43.356.78.787.78zM28.576 81.212l-3.233-19.567-2.62 8.515-7.495.008a.817.817 0 01-.821-.82c0-.457.364-.822.82-.822l6.293-.008 4.32-14.02 3.234 19.617 4.195-13.474 2.23 6.385 5.025-12.18 4.883 19.318 1.841-6.144 5.39-.008c.455 0 .82.365.82.821 0 .456-.365.82-.82.82l-4.171.01-3.192 10.653-5.124-20.263-4.784 11.582-2.015-5.762-4.776 15.339z" fill="#58D6F4"/><path d="M23.021 43.487l-10.538.008a3.096 3.096 0 01-3.092-3.084l-.017-14.733c0-1.7 1.385-3.093 3.084-3.093l10.538-.008c1.7 0 3.093 1.384 3.093 3.084l.017 14.733c0 1.7-1.385 3.085-3.085 3.093zM12.45 23.48c-1.21 0-2.189.987-2.189 2.198l.017 14.733c0 1.21.986 2.189 2.197 2.189l10.538-.008c1.21 0 2.189-.987 2.189-2.197l-.017-14.734c0-1.21-.986-2.189-2.197-2.189l-10.538.008z" fill="#67C3F3"/><path d="M17.74 40.66c4.983-.008 6.533-2.885 6.533-2.885a3.62 3.62 0 00-.887-.78c-1.31-.854-2.363-1.219-2.802-1.584-.448-.356-.697-.878-.697-.878l-.273.166s-.166-.573-.075-1.443c0 0 .39-.1.68-1.418.464.091 1.011-1.086.754-1.517-.165-.282-.364-.257-.505-.19.14-.59.779-3.848-2.736-3.848-3.516 0-2.878 3.258-2.728 3.847-.141-.066-.34-.091-.506.19-.257.432.298 1.61.763 1.518.29 1.318.688 1.41.688 1.41.1.862-.075 1.442-.075 1.442l-.273-.166s-.25.514-.697.88c-.447.364-1.492.737-2.802 1.591-.382.249-.672.498-.887.78-.009.016 1.55 2.893 6.525 2.885zM50.556 27.278l-20.288.025a.687.687 0 01-.689-.688v-.116c0-.382.307-.689.689-.689l20.288-.024c.382 0 .688.306.688.688v.116a.692.692 0 01-.688.688zM43.094 31.142l-12.826.016a.687.687 0 01-.689-.688v-.116c0-.381.307-.688.689-.688l12.826-.017c.381 0 .688.307.688.688v.116a.687.687 0 01-.688.689z" fill="#67C3F3"/><path opacity=".6" d="M57.554 35.735l-27.278.033a.687.687 0 01-.688-.688v-.116c0-.382.307-.688.688-.688l27.278-.034c.381 0 .688.307.688.689v.116a.697.697 0 01-.688.688zM56.965 48.644l-45.502.05a.713.713 0 01-.713-.713v-.067c0-.39.315-.712.713-.712l45.502-.05c.39 0 .713.315.713.713v.066a.713.713 0 01-.713.713zM57.554 40.245l-27.278.033a.687.687 0 01-.688-.688v-.116c0-.381.307-.688.688-.688l27.278-.033c.381 0 .688.307.688.688v.116a.686.686 0 01-.688.688z" fill="#67C3F3"/></g><defs><linearGradient id="jpaint0_linear" x1="-8.654" y1="34.748" x2="76.999" y2="62.578" gradientUnits="userSpaceOnUse"><stop stop-color="#6CBCFC"/><stop offset=".171" stop-color="#5EABFC"/><stop offset=".408" stop-color="#509AFC"/><stop offset=".67" stop-color="#4890FC"/><stop offset="1" stop-color="#458DFC"/></linearGradient><linearGradient id="jpaint1_linear" x1="-4.59" y1="-21.375" x2="56.387" y2="7.99" gradientUnits="userSpaceOnUse"><stop stop-color="#CFE9FF"/><stop offset="1" stop-color="#A1D6FB"/></linearGradient><linearGradient id="jpaint2_linear" x1="14.654" y1="2.58" x2="53.59" y2="2.58" gradientUnits="userSpaceOnUse"><stop stop-color="#B0F4FF"/><stop offset="1" stop-color="#69DCFC"/></linearGradient><linearGradient id="jpaint3_linear" x1="14.77" y1="29.207" x2="24.551" y2="41.833" gradientUnits="userSpaceOnUse"><stop stop-color="#6CBCFC"/><stop offset="1" stop-color="#458DFC"/></linearGradient><linearGradient id="jpaint4_linear" x1="13.709" y1="30.029" x2="23.49" y2="42.655" gradientUnits="userSpaceOnUse"><stop stop-color="#B0F4FF"/><stop offset=".099" stop-color="#A1EFFE"/><stop offset=".299" stop-color="#88E7FD"/><stop offset=".509" stop-color="#77E1FD"/><stop offset=".734" stop-color="#6CDDFC"/><stop offset="1" stop-color="#69DCFC"/></linearGradient><linearGradient id="jpaint5_linear" x1="29.581" y1="26.551" x2="51.24" y2="26.564" gradientUnits="userSpaceOnUse"><stop stop-color="#6CBCFC"/><stop offset="1" stop-color="#458DFC"/></linearGradient><linearGradient id="jpaint6_linear" x1="29.585" y1="30.404" x2="43.781" y2="30.404" gradientUnits="userSpaceOnUse"><stop stop-color="#6CBCFC"/><stop offset="1" stop-color="#458DFC"/></linearGradient><linearGradient id="jpaint7_linear" x1="29.589" y1="35.01" x2="58.237" y2="35.01" gradientUnits="userSpaceOnUse"><stop stop-color="#6CBCFC"/><stop offset="1" stop-color="#458DFC"/></linearGradient><linearGradient id="jpaint8_linear" x1="10.75" y1="47.927" x2="57.676" y2="47.927" gradientUnits="userSpaceOnUse"><stop stop-color="#6CBCFC"/><stop offset="1" stop-color="#458DFC"/></linearGradient><linearGradient id="jpaint9_linear" x1="29.594" y1="39.519" x2="58.242" y2="39.519" gradientUnits="userSpaceOnUse"><stop stop-color="#6CBCFC"/><stop offset="1" stop-color="#458DFC"/></linearGradient><clipPath id="jclip0"><path fill="#fff" transform="translate(.635)" d="M0 0h67.075v95H0z"/></clipPath></defs></svg><svg fill="none" viewBox="0 0 80 72" id="services__card_5" xmlns="http://www.w3.org/2000/svg"><g clip-path="url(#kclip0)"><path d="M66.475 14.01H13.258v57.117h53.218V14.011z" fill="#67C3F3"/><path d="M13.038 14.01c.064 0 .129.028.22.056V71.1c-4.12.321-7.597-.716-10.359-3.377C.945 65.833 0 63.613 0 61.1V34.408c0-3.395-.01-6.79-.01-10.185 0-4.101 2.212-7.083 6.277-9.102 2.092-1.028 4.413-1.184 6.771-1.11z" fill="#67C3F3"/><path d="M57.18 14.002h4.983v57.107H17.571v-57.09h5.294v-.595c0-2.047.01-4.102-.01-6.148-.018-1.431.368-2.68 1.487-3.652.79-.679 1.698-1.027 2.725-1.027 3.184-.01 6.359-.01 9.543-.01 5.349 0 10.707.01 16.057 0 1.403 0 2.569.46 3.486 1.524.734.853 1.01 1.853 1.01 2.972-.01 2.157 0 4.313 0 6.469-.01.12 0 .257.018.45zm-28.571 0h8.157c4.734 0 9.478 0 14.212.009.377 0 .46-.12.46-.477-.02-1.606 0-3.212 0-4.817 0-.129-.02-.257-.038-.395H28.61v5.68z" fill="#fff"/><mask id="ka" maskUnits="userSpaceOnUse" x="17" y="2" width="46" height="70"><path d="M57.18 14.002h4.983v57.107H17.571v-57.09h5.294v-.595c0-2.047.01-4.102-.01-6.148-.018-1.431.368-2.68 1.487-3.652.79-.679 1.698-1.027 2.725-1.027 3.184-.01 6.359-.01 9.543-.01 5.349 0 10.707.01 16.057 0 1.403 0 2.569.46 3.486 1.524.734.853 1.01 1.853 1.01 2.972-.01 2.157 0 4.313 0 6.469-.01.12 0 .257.018.45zm-28.571 0h8.157c4.734 0 9.478 0 14.212.009.377 0 .46-.12.46-.477-.02-1.606 0-3.212 0-4.817 0-.129-.02-.257-.038-.395H28.61v5.68z" fill="#F7F9FC"/></mask><g mask="url(#ka)"><path d="M58.096 0H21v14.02h37.096V0z" fill="#67C3F3"/></g><path d="M80 24.076c0-3.78-2.064-6.597-5.735-8.643-2.257-1.257-4.817-1.496-7.44-1.44-.404.009-.35.22-.35.44v19.81c0 11.606 0 23.204-.009 34.81v2.065c1.652.055 3.22.065 4.762-.302 5.212-1.23 8.763-5.111 8.763-9.69.018-12.34.009-24.7.009-37.05zM44.216 46.785V54.034c0 .761-.385 1.165-1.138 1.165-2.073.01-4.147.01-6.22 0-.689 0-1.074-.431-1.074-1.156v-6.827-.43h-7.166c-.89 0-1.257-.359-1.257-1.249V39.62c0-.899.358-1.257 1.248-1.257h7.166v-.385-6.827c0-.844.376-1.21 1.22-1.21h5.918c.927 0 1.285.348 1.285 1.293.009 2.257 0 4.505 0 6.762v.376h.394c2.276 0 4.551 0 6.827.01.835 0 1.193.367 1.193 1.202v5.945c0 .909-.35 1.257-1.24 1.257-2.266 0-4.532 0-6.789.01-.092-.01-.202-.01-.367-.01z" fill="#67C3F3"/></g><defs><linearGradient id="kpaint0_linear" x1="13.26" y1="42.566" x2="66.473" y2="42.566" gradientUnits="userSpaceOnUse"><stop stop-color="#B0F4FF"/><stop offset="1" stop-color="#69DCFC"/></linearGradient><linearGradient id="kpaint1_linear" x1="0" y1="42.575" x2="13.26" y2="42.575" gradientUnits="userSpaceOnUse"><stop stop-color="#6CBCFC"/><stop offset="1" stop-color="#458DFC"/></linearGradient><linearGradient id="kpaint2_linear" x1="20.996" y1="7.008" x2="58.094" y2="7.008" gradientUnits="userSpaceOnUse"><stop stop-color="#6CBCFC"/><stop offset="1" stop-color="#458DFC"/></linearGradient><linearGradient id="kpaint3_linear" x1="66.469" y1="42.569" x2="80.001" y2="42.569" gradientUnits="userSpaceOnUse"><stop stop-color="#6CBCFC"/><stop offset="1" stop-color="#458DFC"/></linearGradient><linearGradient id="kpaint4_linear" x1="27.367" y1="42.578" x2="52.63" y2="42.578" gradientUnits="userSpaceOnUse"><stop stop-color="#6CBCFC"/><stop offset="1" stop-color="#458DFC"/></linearGradient><clipPath id="kclip0"><path fill="#fff" d="M0 0h80v71.155H0z"/></clipPath></defs></svg><svg fill="none" viewBox="0 0 70 95" id="services__card_6" xmlns="http://www.w3.org/2000/svg"><g clip-path="url(#lclip0)"><path d="M69.422 4.31v86.396a4.306 4.306 0 01-4.31 4.31H4.31C1.926 95 0 93.074 0 90.706V4.31A4.306 4.306 0 014.31 0h60.818a4.302 4.302 0 014.294 4.31z" fill="#67C3F3"/><path d="M65 7.947v79.106C65 89.236 63.307 91 61.213 91H7.787C5.693 90.986 4 89.222 4 87.053V7.947C4 5.764 5.693 4 7.787 4h53.44C63.306 4 65 5.764 65 7.947z" fill="#fff"/><path d="M26.872 18.252v3.931a.499.499 0 01-.505.505h-4.816a.499.499 0 00-.505.506v4.815a.499.499 0 01-.505.505H16.61a.499.499 0 01-.506-.505v-4.816a.499.499 0 00-.505-.505h-4.8a.499.499 0 01-.505-.505v-3.931c0-.285.221-.506.505-.506h4.816a.499.499 0 00.505-.505v-4.815c0-.284.221-.506.505-.506h3.932c.284 0 .505.222.505.506v4.815c0 .284.221.505.505.505h4.8c.284 0 .505.221.505.506z" fill="#67C3F3"/><path opacity=".5" d="M58.576 39.677h-47.73a.566.566 0 01-.568-.569v-1.815c0-.316.253-.569.569-.569h47.729c.316 0 .568.253.568.569v1.815c-.016.316-.252.569-.568.569z" fill="#67C3F3"/><path d="M58.576 17.052H34.893a.566.566 0 01-.569-.569v-1.8c0-.315.253-.568.569-.568h23.683c.316 0 .568.253.568.568V16.5a.573.573 0 01-.568.553z" fill="#67C3F3"/><path opacity=".5" d="M51.566 24.725H34.893a.566.566 0 01-.569-.569v-1.815c0-.316.253-.569.569-.569h16.673c.315 0 .568.253.568.569v1.816c-.016.315-.253.568-.568.568zM58.576 48.297h-47.73a.566.566 0 01-.568-.568v-1.816c0-.316.253-.568.569-.568h47.729c.316 0 .568.252.568.568v1.816c-.016.316-.252.568-.568.568zM58.576 56.918h-47.73a.566.566 0 01-.568-.569v-1.815c0-.316.253-.569.569-.569h47.729c.316 0 .568.253.568.569v1.831a.573.573 0 01-.568.553zM58.576 65.554h-47.73a.566.566 0 01-.568-.568V63.17c0-.316.253-.568.569-.568h47.729c.316 0 .568.252.568.568v1.816c-.016.316-.252.568-.568.568zM58.576 74.175h-47.73a.566.566 0 01-.568-.569v-1.815c0-.316.253-.569.569-.569h47.729c.316 0 .568.253.568.569v1.816c-.016.315-.252.568-.568.568z" fill="#67C3F3"/><path opacity=".5" d="M58.576 82.796h-47.73a.566.566 0 01-.568-.569v-1.816c0-.315.253-.568.569-.568h47.729c.316 0 .568.253.568.568v1.816c-.016.316-.252.569-.568.569z" fill="#67C3F3)"/><path opacity=".1" d="M69.422 4.31v86.396a4.306 4.306 0 01-4.31 4.31H4.31C1.926 95 0 93.074 0 90.706v-1.5C37.087 73.89 54.36 15.157 58.26 0h6.852a4.306 4.306 0 014.31 4.31z" fill="#1A6FB5" fill-opacity=".4"/></g><defs><linearGradient id="lpaint0_linear" x1="95" y1="126" x2="-6" y2="-5.5" gradientUnits="userSpaceOnUse"><stop offset=".306" stop-color="#5BA7FC"/><stop offset="1" stop-color="#69B8FC"/></linearGradient><linearGradient id="lpaint1_linear" x1="8.624" y1="7.046" x2="57.938" y2="78.031" gradientUnits="userSpaceOnUse"><stop offset=".306" stop-color="#fff"/><stop offset="1" stop-color="#fff"/></linearGradient><linearGradient id="lpaint2_linear" x1="10" y1="9.5" x2="25" y2="34" gradientUnits="userSpaceOnUse"><stop stop-color="#B0F4FF"/><stop offset=".369" stop-color="#80E4FD"/><stop offset="1" stop-color="#6CDDFC"/></linearGradient><linearGradient id="lpaint3_linear" x1="10.291" y1="38.207" x2="59.136" y2="38.207" gradientUnits="userSpaceOnUse"><stop stop-color="#6CBCFC"/><stop offset="1" stop-color="#458DFC"/></linearGradient><linearGradient id="lpaint4_linear" x1="34.325" y1="15.584" x2="59.136" y2="15.584" gradientUnits="userSpaceOnUse"><stop stop-color="#6CBCFC"/><stop offset="1" stop-color="#458DFC"/></linearGradient><linearGradient id="lpaint5_linear" x1="34.325" y1="23.262" x2="52.126" y2="23.262" gradientUnits="userSpaceOnUse"><stop stop-color="#6CBCFC"/><stop offset="1" stop-color="#458DFC"/></linearGradient><linearGradient id="lpaint6_linear" x1="10.291" y1="46.832" x2="59.136" y2="46.832" gradientUnits="userSpaceOnUse"><stop stop-color="#6CBCFC"/><stop offset="1" stop-color="#458DFC"/></linearGradient><linearGradient id="lpaint7_linear" x1="10.291" y1="55.456" x2="59.136" y2="55.456" gradientUnits="userSpaceOnUse"><stop stop-color="#6CBCFC"/><stop offset="1" stop-color="#458DFC"/></linearGradient><linearGradient id="lpaint8_linear" x1="10.291" y1="64.081" x2="59.136" y2="64.081" gradientUnits="userSpaceOnUse"><stop stop-color="#6CBCFC"/><stop offset="1" stop-color="#458DFC"/></linearGradient><linearGradient id="lpaint9_linear" x1="10.291" y1="72.705" x2="59.136" y2="72.705" gradientUnits="userSpaceOnUse"><stop stop-color="#6CBCFC"/><stop offset="1" stop-color="#458DFC"/></linearGradient><linearGradient id="lpaint10_linear" x1="10.291" y1="81.33" x2="59.136" y2="81.33" gradientUnits="userSpaceOnUse"><stop stop-color="#6CBCFC"/><stop offset="1" stop-color="#458DFC"/></linearGradient><clipPath id="lclip0"><path fill="#fff" d="M0 0h69.422v95H0z"/></clipPath></defs></svg></svg>