<?xml version="1.0" standalone="no"?>
<!DOCTYPE svg PUBLIC "-//W3C//DTD SVG 20010904//EN"
 "http://www.w3.org/TR/2001/REC-SVG-20010904/DTD/svg10.dtd">
<svg version="1.0" xmlns="http://www.w3.org/2000/svg"
 width="264.000000pt" height="264.000000pt" viewBox="0 0 264.000000 264.000000"
 preserveAspectRatio="xMidYMid meet">
<metadata>
Created by potrace 1.14, written by Peter Selinger 2001-2017
</metadata>
<g transform="translate(0.000000,264.000000) scale(0.100000,-0.100000)"
fill="#000000" stroke="none">
<path d="M1462 2143 c-78 -27 -143 -111 -158 -203 l-7 -43 58 6 c112 11 199
95 212 205 l6 52 -34 -1 c-19 0 -53 -7 -77 -16z"/>
<path d="M1873 2140 c-18 -5 -19 -32 -18 -635 l0 -629 93 -1 c52 0 97 4 101
10 4 5 7 71 6 145 l-1 135 44 47 45 48 130 -188 c71 -103 132 -189 134 -191 6
-8 223 -6 223 2 0 4 -79 119 -175 256 -96 137 -175 253 -175 257 0 5 10 20 23
34 13 14 81 90 152 170 71 80 132 147 137 148 4 2 8 8 8 13 0 5 -53 9 -118 9
l-118 0 -41 -47 c-22 -27 -54 -62 -69 -78 -50 -53 -148 -167 -171 -199 -13
-16 -24 -26 -24 -20 -1 5 -3 164 -4 354 -1 190 -3 350 -4 355 -1 10 -144 14
-178 5z"/>
<path d="M1254 1840 c-95 -77 -258 -245 -299 -310 -25 -40 -52 -107 -59 -144
-5 -29 -8 -28 91 -30 69 -1 73 0 82 24 33 91 134 161 234 161 100 0 179 -49
224 -139 35 -69 37 -134 6 -203 -43 -95 -119 -143 -228 -144 -108 0 -184 48
-227 143 -14 30 -25 42 -41 43 -56 3 -139 0 -144 -5 -7 -7 14 -72 45 -134 47
-97 156 -183 267 -211 63 -17 150 -13 217 10 269 90 376 402 219 635 -52 77
-314 334 -340 334 -5 0 -25 -14 -47 -30z"/>
<path d="M401 1798 c-63 -10 -122 -37 -170 -79 -35 -30 -42 -34 -40 -21 1 4 1
25 0 48 l-1 41 -95 0 -95 -1 0 -446 0 -446 98 0 97 1 3 323 2 322 40 40 c21
21 54 43 72 48 54 15 136 8 166 -15 55 -41 57 -50 58 -398 l1 -320 97 -1 c90
-1 97 1 101 20 3 12 3 167 2 346 -3 306 -5 328 -25 381 -47 119 -165 178 -311
157z"/>
<path d="M1177 800 c-5 -21 0 -30 20 -30 17 0 17 36 -1 43 -8 3 -16 -2 -19
-13z"/>
<path d="M809 778 c-1 -18 -1 -38 0 -45 1 -9 -7 -9 -33 2 -78 33 -147 -39
-116 -121 6 -15 18 -33 28 -40 24 -19 82 -17 105 4 19 16 20 16 14 0 -5 -13
-1 -18 13 -18 19 0 20 7 20 125 0 104 -2 125 -15 125 -10 0 -15 -11 -16 -32z
m-24 -78 c38 -43 23 -98 -31 -114 -51 -15 -89 63 -53 109 25 30 59 32 84 5z"/>
<path d="M1098 803 c-2 -5 -4 -60 -3 -123 0 -98 2 -115 16 -118 15 -3 16 12
16 123 -1 91 -5 125 -14 125 -6 0 -13 -3 -15 -7z"/>
<path d="M933 739 c-37 -13 -56 -54 -50 -102 7 -52 35 -77 88 -77 38 0 79 26
79 50 0 14 -16 12 -33 -5 -27 -26 -63 -29 -86 -6 -34 34 -26 41 48 41 39 0 72
4 75 9 3 5 1 23 -5 40 -16 46 -67 68 -116 50z m84 -46 c7 -9 10 -19 8 -22 -7
-7 -115 -8 -115 -1 0 3 7 16 16 29 13 19 22 22 48 17 17 -4 37 -14 43 -23z"/>
<path d="M1247 743 c-3 -5 9 -46 27 -93 45 -117 61 -118 104 -8 36 92 39 110
18 102 -8 -3 -25 -35 -36 -70 -12 -35 -25 -66 -30 -69 -5 -3 -18 24 -30 59
-20 62 -43 96 -53 79z"/>
<path d="M1494 740 c-80 -31 -74 -156 9 -178 38 -10 93 11 100 39 7 25 -7 24
-44 -3 -28 -21 -32 -21 -57 -7 -15 8 -28 22 -30 32 -3 15 6 17 72 17 56 0 74
3 72 13 -3 6 -7 24 -10 39 -9 41 -65 65 -112 48z m71 -36 c26 -26 12 -39 -43
-40 -55 -1 -63 8 -35 38 20 22 56 23 78 2z"/>
<path d="M1715 740 c-11 -5 -30 -6 -41 -3 -21 4 -22 2 -21 -86 1 -75 4 -91 16
-89 12 2 16 19 17 67 0 49 5 67 19 77 10 7 21 11 26 9 11 -7 19 9 11 22 -4 6
-15 7 -27 3z"/>
<path d="M1180 650 c0 -73 3 -90 15 -90 12 0 15 17 15 90 0 73 -3 90 -15 90
-12 0 -15 -17 -15 -90z"/>
<path d="M1760 735 c0 -3 16 -42 35 -89 34 -83 34 -84 18 -125 -16 -40 -14
-59 5 -47 9 5 112 246 112 260 0 3 -6 6 -14 6 -8 0 -23 -27 -36 -62 -24 -64
-40 -93 -40 -69 0 7 -6 27 -14 44 -7 18 -18 44 -24 60 -7 15 -18 27 -27 27 -8
0 -15 -2 -15 -5z"/>
</g>
</svg>
