<?xml version="1.0" standalone="no"?>
<!DOCTYPE svg PUBLIC "-//W3C//DTD SVG 20010904//EN"
 "http://www.w3.org/TR/2001/REC-SVG-20010904/DTD/svg10.dtd">
<svg version="1.0" xmlns="http://www.w3.org/2000/svg"
 width="270.000000pt" height="270.000000pt" viewBox="0 0 270.000000 270.000000"
 preserveAspectRatio="xMidYMid meet">
<metadata>
Created by potrace 1.14, written by Peter Selinger 2001-2017
</metadata>
<g transform="translate(0.000000,270.000000) scale(0.100000,-0.100000)"
fill="#000000" stroke="none">
<path d="M1400 2571 c0 -4 -40 -82 -89 -172 -48 -90 -102 -189 -118 -219 -16
-30 -54 -100 -83 -155 -29 -55 -96 -179 -148 -275 -52 -96 -109 -202 -127
-235 -59 -108 -171 -318 -225 -420 -29 -55 -56 -104 -60 -110 -4 -5 -33 -59
-65 -120 -32 -60 -79 -148 -105 -195 -26 -47 -69 -125 -95 -175 -26 -49 -58
-109 -71 -133 -13 -23 -51 -94 -84 -156 l-61 -115 65 -36 c62 -35 68 -36 152
-33 l87 3 119 220 c66 121 140 260 166 308 26 49 58 109 72 135 15 26 50 92
79 147 30 55 62 114 71 130 10 17 39 71 65 120 43 81 206 384 275 510 15 28
49 91 75 140 94 176 107 200 114 207 4 5 19 -16 34 -45 15 -28 45 -86 68 -127
45 -82 93 -172 159 -295 23 -44 55 -102 70 -130 15 -27 49 -90 75 -140 26 -49
56 -103 65 -120 19 -33 60 -109 135 -250 26 -49 60 -112 75 -140 45 -82 84
-155 135 -250 59 -112 96 -180 122 -225 11 -19 39 -72 63 -118 l43 -82 88 0
c71 0 95 4 123 21 36 21 36 21 36 93 0 43 -5 79 -13 91 -8 11 -35 61 -62 110
-77 144 -116 217 -145 270 -15 28 -47 86 -70 130 -24 44 -55 103 -70 130 -15
28 -49 91 -75 140 -47 88 -150 279 -205 380 -15 28 -45 84 -67 125 -40 73
-148 275 -203 375 -66 122 -247 458 -327 608 -41 77 -63 104 -63 78z"/>
<path d="M1403 1448 c-6 -7 -74 -139 -153 -293 -79 -154 -173 -338 -210 -410
-37 -71 -124 -241 -194 -378 l-127 -247 691 0 c379 0 690 2 690 6 0 3 -48 98
-106 212 -59 114 -154 299 -212 412 -57 113 -142 277 -187 365 -45 88 -104
202 -129 253 -26 50 -49 92 -50 92 -2 0 -8 -6 -13 -12z m111 -832 c53 -103 96
-190 96 -192 0 -2 -90 -4 -200 -4 l-199 0 86 168 c47 92 93 180 101 195 8 16
15 27 17 25 1 -2 45 -88 99 -192z"/>
</g>
</svg>
