<?xml version="1.0" encoding="utf-8"?><svg viewBox="0 0 46 25" xmlns="http://www.w3.org/2000/svg" xmlns:xlink="http://www.w3.org/1999/xlink"><style>:root>svg{display:none}:root>svg:target{display:block}</style><svg viewBox="0 0 14 14" id="24-hours" xmlns="http://www.w3.org/2000/svg"><g clip-path="url(#aa)"><path d="M4.782 8.069l-.353.342a.257.257 0 00-.077.184v.146c0 .141.114.256.256.256h2.104a.257.257 0 00.257-.256v-.19a.257.257 0 00-.257-.256H5.55l.032-.03c.76-.731 1.297-1.308 1.297-2.058 0-.6-.39-1.205-1.26-1.205-.381 0-.754.122-1.05.344a.257.257 0 00-.08.31l.065.144a.256.256 0 00.38.104c.191-.133.387-.2.583-.2.383 0 .576.19.576.562-.005.504-.423.957-1.311 1.803z"/><path d="M8.617 5.065h-.099a.257.257 0 00-.21.11L6.737 7.422a.257.257 0 00-.047.147v.18c0 .142.115.257.257.257h1.435v.734c0 .142.115.257.256.257h.245a.257.257 0 00.257-.257v-.734h.253a.257.257 0 00.256-.257v-.166a.257.257 0 00-.256-.257H9.14V5.321a.257.257 0 00-.257-.256h-.265zm-.235 2.262h-.775c.197-.286.533-.776.775-1.139v1.139z"/><path d="M7.01 12.89a5.483 5.483 0 01-5.476-5.476 5.484 5.484 0 015-5.456v.873a.168.168 0 00.262.14l1.982-1.332a.168.168 0 000-.279L6.796.03a.168.168 0 00-.262.139v.677a6.595 6.595 0 00-6.11 6.569A6.594 6.594 0 007.01 14a6.561 6.561 0 004.507-1.784l-.76-.809A5.455 5.455 0 017.01 12.89zm5.622-8.91a6.612 6.612 0 00-.788-1.04l-.815.753c.247.267.467.558.656.867l.947-.58zm-.196 2.69l1.1-.149a6.57 6.57 0 00-.304-1.271l-1.048.364c.118.342.203.697.252 1.056zm-1.649-4.653a6.588 6.588 0 00-1.139-.64l-.445 1.017c.331.145.65.324.947.532l.637-.909zm.453 8.875l.857.705c.277-.337.522-.702.726-1.086l-.979-.523c-.17.32-.373.623-.604.904zm1.23-3.054a5.479 5.479 0 01-.19 1.07l1.068.301a6.65 6.65 0 00.229-1.287l-1.107-.084z"/></g><defs><clipPath id="aa"><path d="M0 0h14v14H0z"/></clipPath></defs></svg><svg viewBox="0 0 15 15" id="clip" xmlns="http://www.w3.org/2000/svg"><path d="M13.086 1.093a3.74 3.74 0 00-5.284 0L2.238 6.656a.44.44 0 10.622.622l5.564-5.564c1.08-1.079 2.96-1.079 4.04 0a2.86 2.86 0 010 4.041l-7.768 7.857c-.665.664-1.822.664-2.487 0a1.76 1.76 0 010-2.487L9.667 3.58a.675.675 0 01.933 0 .66.66 0 010 .933l-7.147 7.235c-.149.148-.149.473 0 .621a.44.44 0 00.621 0l7.147-7.235c.6-.6.6-1.575 0-2.176-.58-.58-1.595-.58-2.175 0l-7.459 7.547a2.655 2.655 0 000 3.73 2.618 2.618 0 001.866.766 2.61 2.61 0 001.864-.767l7.77-7.856a3.74 3.74 0 000-5.284z"/></svg><svg viewBox="0 0 25 25" id="close" xmlns="http://www.w3.org/2000/svg"><path d="M14.79 12.52l9.735-9.735a1.617 1.617 0 000-2.29 1.618 1.618 0 00-2.29 0L12.5 10.228 2.765.494a1.618 1.618 0 00-2.29 0 1.617 1.617 0 000 2.29l9.735 9.736-9.735 9.734A1.617 1.617 0 001.62 25.02c.415 0 .83-.159 1.145-.474L12.5 14.81l9.735 9.734a1.615 1.615 0 002.29 0 1.617 1.617 0 000-2.29L14.79 12.52z"/></svg><svg viewBox="0 0 13 13" id="email" xmlns="http://www.w3.org/2000/svg"><path d="M8.617 6.567L13 9.337V3.68L8.617 6.567zM0 3.68v5.658l4.383-2.77L0 3.68zm12.188-1.649H.813a.802.802 0 00-.789.692L6.5 6.989l6.476-4.266a.802.802 0 00-.789-.692zM7.873 7.057l-1.15.758a.406.406 0 01-.446 0l-1.15-.758-5.1 3.226a.801.801 0 00.786.686h11.375a.8.8 0 00.786-.686l-5.1-3.226z"/></svg><svg viewBox="0 0 20 20" id="fb" xmlns="http://www.w3.org/2000/svg"><path d="M20 10c0-5.523-4.477-10-10-10S0 4.477 0 10s4.477 10 10 10c.059 0 .117 0 .176-.004v-7.781H8.027V9.71h2.149V7.867c0-2.137 1.304-3.3 3.21-3.3.915 0 1.7.066 1.927.097v2.234H14c-1.035 0-1.238.493-1.238 1.215v1.594h2.48l-.324 2.504h-2.156v7.402C16.942 18.414 20 14.566 20 10z"/></svg><svg viewBox="0 0 17 18" id="inst" xmlns="http://www.w3.org/2000/svg"><g clip-path="url(#fa)"><path d="M12.398 0H4.602C2.064 0 0 2.186 0 4.872v8.256C0 15.814 2.064 18 4.602 18h7.796C14.936 18 17 15.814 17 13.128V4.872C17 2.186 14.936 0 12.398 0zM8.5 13.922c-2.563 0-4.648-2.208-4.648-4.922 0-2.714 2.085-4.922 4.648-4.922 2.563 0 4.648 2.208 4.648 4.922 0 2.714-2.085 4.922-4.648 4.922zm4.76-8.683c-.758 0-1.374-.652-1.374-1.454 0-.802.616-1.455 1.373-1.455.758 0 1.374.653 1.374 1.455s-.616 1.454-1.374 1.454z"/><path d="M8.5 5.133c-2.013 0-3.651 1.734-3.651 3.866s1.638 3.867 3.651 3.867c2.014 0 3.652-1.735 3.652-3.867 0-2.132-1.638-3.866-3.652-3.866zm4.76-1.748a.389.389 0 00-.377.399c0 .22.169.399.377.399a.389.389 0 00.377-.4c0-.22-.17-.398-.377-.398z"/></g><defs><clipPath id="fa"><path d="M0 0h17v18H0z"/></clipPath></defs></svg><svg viewBox="0 0 11 15" id="location" xmlns="http://www.w3.org/2000/svg"><path d="M5.5 0A5.439 5.439 0 00.067 5.432c0 3.718 4.862 9.175 5.069 9.406a.49.49 0 00.728 0c.207-.23 5.068-5.688 5.068-9.406A5.439 5.439 0 005.5 0zm0 8.166a2.736 2.736 0 01-2.733-2.734A2.736 2.736 0 015.5 2.7a2.736 2.736 0 012.733 2.733A2.736 2.736 0 015.5 8.166z"/></svg><svg viewBox="0 0 12 12" id="phone" xmlns="http://www.w3.org/2000/svg"><g clip-path="url(#ha)"><path d="M11.037 7.877a6.813 6.813 0 01-2.14-.341c-.335-.114-.746-.01-.95.2l-1.35 1.019C5.032 7.92 4.068 6.956 3.244 5.403l.99-1.314a.97.97 0 00.238-.983A6.823 6.823 0 014.13.963.964.964 0 003.167 0H.963A.964.964 0 000 .963C0 7.049 4.951 12 11.037 12a.964.964 0 00.963-.963V8.84a.964.964 0 00-.963-.962z"/></g><defs><clipPath id="ha"><path d="M0 0h12v12H0z"/></clipPath></defs></svg><svg viewBox="0 0 46 24" id="slider__arrow" xmlns="http://www.w3.org/2000/svg"><path d="M45.453 11.278L35.225 1.051a1.023 1.023 0 10-1.441 1.442l8.478 8.488H1.772a1.023 1.023 0 000 2.046h40.49l-8.478 8.478a1.023 1.023 0 101.441 1.442L45.453 12.72a1.023 1.023 0 000-1.442z"/></svg></svg>