<?xml version="1.0" standalone="no"?>
<!DOCTYPE svg PUBLIC "-//W3C//DTD SVG 20010904//EN"
 "http://www.w3.org/TR/2001/REC-SVG-20010904/DTD/svg10.dtd">
<svg version="1.0" xmlns="http://www.w3.org/2000/svg"
 width="260.000000pt" height="260.000000pt" viewBox="0 0 260.000000 260.000000"
 preserveAspectRatio="xMidYMid meet">
<metadata>
Created by potrace 1.14, written by Peter Selinger 2001-2017
</metadata>
<g transform="translate(0.000000,260.000000) scale(0.100000,-0.100000)"
fill="#000000" stroke="none">
<path d="M1131 2590 c-556 -78 -987 -483 -1107 -1041 -26 -118 -26 -380 0
-498 59 -273 167 -474 360 -667 193 -193 394 -301 667 -360 118 -26 380 -26
498 0 273 59 474 167 667 360 193 193 301 394 360 667 14 62 18 127 18 249 0
122 -4 187 -18 249 -59 273 -167 474 -360 667 -190 189 -384 296 -646 355 -99
23 -340 33 -439 19z m291 -545 c146 -30 268 -115 316 -219 13 -26 21 -50 18
-53 -2 -2 -53 -16 -113 -29 -102 -24 -109 -24 -118 -7 -47 84 -147 129 -266
121 -129 -10 -199 -66 -199 -162 0 -43 4 -53 35 -81 39 -38 93 -57 305 -111
235 -59 316 -107 372 -222 31 -63 33 -72 33 -177 0 -100 -3 -115 -28 -166 -15
-31 -51 -79 -80 -107 -96 -90 -202 -130 -372 -139 -258 -13 -471 83 -555 250
-35 70 -37 84 -12 91 16 5 203 46 209 46 1 0 10 -17 18 -37 33 -80 99 -124
210 -144 237 -41 414 73 347 225 -12 27 -33 53 -52 64 -17 11 -117 45 -223 76
-105 31 -220 68 -254 83 -128 52 -194 153 -201 308 -5 115 18 181 88 258 113
124 318 176 522 132z"/>
</g>
</svg>
